<?xml version="1.0" encoding="UTF-8" standalone="no"?>
<svg xmlns:svg="http://www.w3.org/2000/svg"
xmlns="http://www.w3.org/2000/svg" version="1.1"
width="360" height="185">
<g>
<text x="175" y="175" style="font-size:36px;font-weight:bold;text-align:center;text-anchor:middle;font-family:Sans">300</text>
  <g style="fill:#FA8072" id="SYRIZA">
    <circle name="seat1" cx="10.61" cy="175.56" r="4.44"/>
    <circle name="seat2" cx="21.73" cy="175.56" r="4.44"/>
    <circle cx="32.84" cy="175.56" r="4.44"/>
    <circle cx="43.96" cy="175.56" r="4.44"/>
    <circle cx="55.08" cy="175.56" r="4.44"/>
    <circle cx="66.20" cy="175.56" r="4.44"/>
    <circle cx="77.32" cy="175.56" r="4.44"/>
    <circle cx="88.44" cy="175.56" r="4.44"/>
    <circle cx="99.57" cy="175.56" r="4.44"/>
    <circle cx="11.27" cy="164.44" r="4.44"/>
    <circle cx="22.51" cy="163.67" r="4.44"/>
    <circle cx="33.69" cy="163.65" r="4.44"/>
    <circle cx="44.88" cy="163.63" r="4.44"/>
    <circle cx="56.08" cy="163.61" r="4.44"/>
    <circle cx="67.30" cy="163.58" r="4.44"/>
    <circle cx="12.66" cy="153.39" r="4.44"/>
    <circle cx="78.55" cy="163.55" r="4.44"/>
    <circle cx="24.18" cy="151.88" r="4.44"/>
    <circle cx="89.83" cy="163.51" r="4.44"/>
    <circle cx="35.49" cy="151.86" r="4.44"/>
    <circle cx="101.16" cy="163.47" r="4.44"/>
    <circle cx="46.83" cy="151.83" r="4.44"/>
    <circle cx="14.77" cy="142.46" r="4.44"/>
    <circle cx="58.22" cy="151.81" r="4.44"/>
    <circle cx="69.66" cy="151.79" r="4.44"/>
    <circle cx="26.74" cy="140.24" r="4.44"/>
    <circle cx="38.25" cy="140.24" r="4.44"/>
    <circle cx="81.18" cy="151.77" r="4.44"/>
    <circle cx="17.59" cy="131.69" r="4.44"/>
    <circle cx="49.82" cy="140.25" r="4.44"/>
    <circle cx="92.79" cy="151.76" r="4.44"/>
    <circle cx="61.48" cy="140.28" r="4.44"/>
    <circle cx="30.16" cy="128.83" r="4.44"/>
    <circle cx="41.93" cy="128.89" r="4.44"/>
    <circle cx="21.11" cy="121.13" r="4.44"/>
    <circle cx="73.25" cy="140.31" r="4.44"/>
    <circle cx="104.56" cy="151.75" r="4.44"/>
    <circle cx="53.81" cy="128.98" r="4.44"/>
    <circle cx="85.17" cy="140.38" r="4.44"/>
    <circle cx="34.43" cy="117.71" r="4.44"/>
    <circle cx="65.83" cy="129.10" r="4.44"/>
    <circle cx="25.32" cy="110.82" r="4.44"/>
    <circle cx="46.53" cy="117.88" r="4.44"/>
    <circle cx="97.28" cy="140.49" r="4.44"/>
    <circle cx="78.03" cy="129.28" r="4.44"/>
    <circle cx="58.78" cy="118.10" r="4.44"/>
    <circle cx="39.53" cy="106.94" r="4.44"/>
    <circle cx="30.20" cy="100.81" r="4.44"/>
    <circle cx="109.69" cy="140.69" r="4.44"/>
    <circle cx="90.46" cy="129.53" r="4.44"/>
    <circle cx="71.23" cy="118.40" r="4.44"/>
    <circle cx="52.00" cy="107.27" r="4.44"/>
    <circle cx="35.73" cy="91.14" r="4.44"/>
    <circle cx="45.42" cy="96.59" r="4.44"/>
    <circle cx="64.68" cy="107.70" r="4.44"/>
    <circle cx="83.95" cy="118.81" r="4.44"/>
    <circle cx="103.22" cy="129.92" r="4.44"/>
    <circle cx="58.31" cy="97.14" r="4.44"/>
    <circle cx="77.63" cy="108.26" r="4.44"/>
    <circle cx="41.87" cy="81.86" r="4.44"/>
    <circle cx="52.07" cy="86.71" r="4.44"/>
    <circle cx="97.00" cy="119.39" r="4.44"/>
    <circle cx="71.47" cy="97.85" r="4.44"/>
    <circle cx="116.43" cy="130.52" r="4.44"/>
    <circle cx="90.93" cy="109.02" r="4.44"/>
    <circle cx="65.42" cy="87.56" r="4.44"/>
    <circle cx="48.62" cy="73.00" r="4.44"/>
    <circle cx="59.45" cy="77.35" r="4.44"/>
    <circle cx="84.98" cy="98.78" r="4.44"/>
    <circle cx="110.50" cy="120.22" r="4.44"/>
    <circle cx="79.10" cy="88.64" r="4.44"/>
    <circle cx="104.68" cy="110.07" r="4.44"/>
    <circle cx="55.93" cy="64.60" r="4.44"/>
    <circle cx="73.28" cy="78.58" r="4.44"/>
    <circle cx="98.91" cy="100.03" r="4.44"/>
    <circle cx="67.51" cy="68.58" r="4.44"/>
    <circle cx="93.20" cy="90.05" r="4.44"/>
    <circle cx="124.63" cy="121.49" r="4.44"/>
    <circle cx="63.78" cy="56.70" r="4.44"/>
    <circle cx="87.51" cy="80.14" r="4.44"/>
    <circle cx="81.85" cy="70.27" r="4.44"/>
    <circle cx="119.00" cy="111.57" r="4.44"/>
    <circle cx="76.20" cy="60.44" r="4.44"/>
    <circle cx="113.39" cy="101.73" r="4.44"/>
    <circle cx="72.13" cy="49.33" r="4.44"/>
    <circle cx="107.80" cy="91.92" r="4.44"/>
    <circle cx="102.21" cy="82.15" r="4.44"/>
    <circle cx="96.63" cy="72.41" r="4.44"/>
    <circle cx="91.06" cy="62.68" r="4.44"/>
    <circle cx="85.49" cy="52.97" r="4.44"/>
    <circle cx="80.94" cy="42.53" r="4.44"/>
    <circle cx="134.10" cy="113.80" r="4.44"/>
    <circle cx="128.57" cy="104.12" r="4.44"/>
    <circle cx="123.03" cy="94.46" r="4.44"/>
    <circle cx="117.49" cy="84.80" r="4.44"/>
    <circle cx="111.95" cy="75.15" r="4.44"/>
    <circle cx="106.40" cy="65.50" r="4.44"/>
    <circle cx="100.85" cy="55.86" r="4.44"/>
    <circle cx="95.30" cy="46.22" r="4.44"/>
    <circle cx="90.18" cy="36.32" r="4.44"/>
    <circle cx="99.81" cy="30.73" r="4.44"/>
    <circle cx="105.60" cy="40.23" r="4.44"/>
    <circle cx="111.17" cy="49.86" r="4.44"/>
    <circle cx="116.73" cy="59.49" r="4.44"/>
    <circle cx="122.30" cy="69.11" r="4.44"/>
    <circle cx="127.88" cy="78.74" r="4.44"/>
    <circle cx="133.45" cy="88.37" r="4.44"/>
    <circle cx="139.03" cy="98.00" r="4.44"/>
    <circle cx="144.62" cy="107.63" r="4.44"/>
    <circle cx="109.79" cy="25.79" r="4.44"/>
    <circle cx="116.32" cy="35.04" r="4.44"/>
    <circle cx="121.93" cy="44.71" r="4.44"/>
    <circle cx="127.56" cy="54.40" r="4.44"/>
    <circle cx="133.19" cy="64.09" r="4.44"/>
    <circle cx="138.84" cy="73.81" r="4.44"/>
    <circle cx="120.07" cy="21.51" r="4.44"/>
    <circle cx="144.51" cy="83.54" r="4.44"/>
    <circle cx="127.40" cy="30.66" r="4.44"/>
    <circle cx="150.21" cy="93.31" r="4.44"/>
    <circle cx="133.08" cy="40.45" r="4.44"/>
    <circle cx="138.79" cy="50.28" r="4.44"/>
    <circle cx="155.95" cy="103.12" r="4.44"/>
    <circle cx="130.61" cy="17.91" r="4.44"/>
    <circle cx="144.51" cy="60.14" r="4.44"/>
    <circle cx="150.27" cy="70.06" r="4.44"/>
    <circle cx="138.78" cy="27.13" r="4.44"/>
    <circle cx="144.54" cy="37.11" r="4.44"/>
    <circle cx="156.07" cy="80.05" r="4.44"/>
    <circle cx="141.36" cy="15.02" r="4.44"/>
    <circle cx="150.33" cy="47.16" r="4.44"/>
    <circle cx="161.92" cy="90.13" r="4.44"/>
    <circle cx="156.16" cy="57.29" r="4.44"/>
    <circle cx="150.39" cy="24.46" r="4.44"/>
    <circle cx="152.28" cy="12.84" r="4.44"/>
    <circle cx="156.23" cy="34.71" r="4.44"/>
    <circle cx="162.03" cy="67.54" r="4.44"/>
    <circle cx="167.84" cy="100.37" r="4.44"/>
    <circle cx="162.11" cy="45.07" r="4.44"/>
    <circle cx="167.95" cy="77.93" r="4.44"/>
    <circle cx="162.16" cy="22.67" r="4.44"/>
    <circle cx="163.32" cy="11.38" r="4.44"/>
    <circle cx="168.02" cy="55.57" r="4.44"/>
    <circle cx="168.08" cy="33.26" r="4.44"/>
    <circle cx="173.94" cy="88.53" r="4.44"/>
    <circle cx="173.99" cy="66.27" r="4.44"/>
    <circle cx="174.02" cy="44.02" r="4.44"/>
    <circle cx="174.04" cy="21.78" r="4.44"/>
    <circle cx="174.43" cy="10.65" r="4.44"/>
    <circle cx="180.00" cy="32.78" r="4.44"/>
  </g>
  <g style="fill:#1569C7" id="ND">
    <circle cx="180.00" cy="55.00" r="4.44"/>
    <circle cx="180.00" cy="77.22" r="4.44"/>
    <circle cx="180.00" cy="99.44" r="4.44"/>
    <circle cx="185.57" cy="10.65" r="4.44"/>
    <circle cx="185.96" cy="21.78" r="4.44"/>
    <circle cx="185.98" cy="44.02" r="4.44"/>
    <circle cx="186.01" cy="66.27" r="4.44"/>
    <circle cx="186.06" cy="88.53" r="4.44"/>
    <circle cx="191.92" cy="33.26" r="4.44"/>
    <circle cx="191.98" cy="55.57" r="4.44"/>
    <circle cx="196.68" cy="11.38" r="4.44"/>
    <circle cx="197.84" cy="22.67" r="4.44"/>
    <circle cx="192.05" cy="77.93" r="4.44"/>
    <circle cx="197.89" cy="45.07" r="4.44"/>
    <circle cx="192.16" cy="100.37" r="4.44"/>
    <circle cx="197.97" cy="67.54" r="4.44"/>
    <circle cx="203.77" cy="34.71" r="4.44"/>
    <circle cx="207.72" cy="12.84" r="4.44"/>
    <circle cx="209.61" cy="24.46" r="4.44"/>
    <circle cx="203.84" cy="57.29" r="4.44"/>
    <circle cx="198.08" cy="90.13" r="4.44"/>
    <circle cx="209.67" cy="47.16" r="4.44"/>
    <circle cx="218.64" cy="15.02" r="4.44"/>
    <circle cx="203.93" cy="80.05" r="4.44"/>
    <circle cx="215.46" cy="37.11" r="4.44"/>
    <circle cx="221.22" cy="27.13" r="4.44"/>
    <circle cx="209.73" cy="70.06" r="4.44"/>
    <circle cx="215.49" cy="60.14" r="4.44"/>
    <circle cx="229.39" cy="17.91" r="4.44"/>
    <circle cx="204.05" cy="103.12" r="4.44"/>
    <circle cx="221.21" cy="50.28" r="4.44"/>
    <circle cx="226.92" cy="40.45" r="4.44"/>
    <circle cx="209.79" cy="93.31" r="4.44"/>
    <circle cx="232.60" cy="30.66" r="4.44"/>
    <circle cx="215.49" cy="83.54" r="4.44"/>
    <circle cx="239.93" cy="21.51" r="4.44"/>
    <circle cx="221.16" cy="73.81" r="4.44"/>
    <circle cx="226.81" cy="64.09" r="4.44"/>
    <circle cx="232.44" cy="54.40" r="4.44"/>
    <circle cx="238.07" cy="44.71" r="4.44"/>
    <circle cx="243.68" cy="35.04" r="4.44"/>
    <circle cx="250.21" cy="25.79" r="4.44"/>
    <circle cx="215.38" cy="107.63" r="4.44"/>
    <circle cx="220.97" cy="98.00" r="4.44"/>
    <circle cx="226.55" cy="88.37" r="4.44"/>
    <circle cx="232.12" cy="78.74" r="4.44"/>
    <circle cx="237.70" cy="69.11" r="4.44"/>
    <circle cx="243.27" cy="59.49" r="4.44"/>
    <circle cx="248.83" cy="49.86" r="4.44"/>
    <circle cx="254.40" cy="40.23" r="4.44"/>
    <circle cx="260.19" cy="30.73" r="4.44"/>
    <circle cx="269.82" cy="36.32" r="4.44"/>
    <circle cx="264.70" cy="46.22" r="4.44"/>
    <circle cx="259.15" cy="55.86" r="4.44"/>
    <circle cx="253.60" cy="65.50" r="4.44"/>
    <circle cx="248.05" cy="75.15" r="4.44"/>
    <circle cx="242.51" cy="84.80" r="4.44"/>
    <circle cx="236.97" cy="94.46" r="4.44"/>
    <circle cx="231.43" cy="104.12" r="4.44"/>
    <circle cx="225.90" cy="113.80" r="4.44"/>
    <circle cx="279.06" cy="42.53" r="4.44"/>
    <circle cx="274.51" cy="52.97" r="4.44"/>
    <circle cx="268.94" cy="62.68" r="4.44"/>
    <circle cx="263.37" cy="72.41" r="4.44"/>
    <circle cx="257.79" cy="82.15" r="4.44"/>
    <circle cx="252.20" cy="91.92" r="4.44"/>
    <circle cx="287.87" cy="49.33" r="4.44"/>
    <circle cx="246.61" cy="101.73" r="4.44"/>
    <circle cx="283.80" cy="60.44" r="4.44"/>
    <circle cx="241.00" cy="111.57" r="4.44"/>
    <circle cx="278.15" cy="70.27" r="4.44"/>
    <circle cx="272.49" cy="80.14" r="4.44"/>
    <circle cx="296.22" cy="56.70" r="4.44"/>
    <circle cx="235.37" cy="121.49" r="4.44"/>
    <circle cx="266.80" cy="90.05" r="4.44"/>
    <circle cx="292.49" cy="68.58" r="4.44"/>
  </g>
  <g style="fill:#00022D" id="XA">
    <circle cx="261.09" cy="100.03" r="4.44"/>
    <circle cx="286.72" cy="78.58" r="4.44"/>
    <circle cx="304.07" cy="64.60" r="4.44"/>
    <circle cx="255.32" cy="110.07" r="4.44"/>
    <circle cx="280.90" cy="88.64" r="4.44"/>
    <circle cx="249.50" cy="120.22" r="4.44"/>
    <circle cx="275.02" cy="98.78" r="4.44"/>
    <circle cx="300.55" cy="77.35" r="4.44"/>
    <circle cx="311.38" cy="73.00" r="4.44"/>
    <circle cx="294.58" cy="87.56" r="4.44"/>
    <circle cx="269.07" cy="109.02" r="4.44"/>
    <circle cx="243.57" cy="130.52" r="4.44"/>
    <circle cx="288.53" cy="97.85" r="4.44"/>
    <circle cx="263.00" cy="119.39" r="4.44"/>
    <circle cx="307.93" cy="86.71" r="4.44"/>
    <circle cx="318.13" cy="81.86" r="4.44"/>
    <circle cx="282.37" cy="108.26" r="4.44"/>
  </g>
  <g style="fill:#9C514A" id="ToPotami">
    <circle cx="301.69" cy="97.14" r="4.44"/>
    <circle cx="256.78" cy="129.92" r="4.44"/>
    <circle cx="276.05" cy="118.81" r="4.44"/>
    <circle cx="295.32" cy="107.70" r="4.44"/>
    <circle cx="314.58" cy="96.59" r="4.44"/>
    <circle cx="324.27" cy="91.14" r="4.44"/>
    <circle cx="308.00" cy="107.27" r="4.44"/>
    <circle cx="288.77" cy="118.40" r="4.44"/>
    <circle cx="269.54" cy="129.53" r="4.44"/>
    <circle cx="250.31" cy="140.69" r="4.44"/>
    <circle cx="329.80" cy="100.81" r="4.44"/>
    <circle cx="320.47" cy="106.94" r="4.44"/>
    <circle cx="301.22" cy="118.10" r="4.44"/>
    <circle cx="281.97" cy="129.28" r="4.44"/>
    <circle cx="262.72" cy="140.49" r="4.44"/>
    <circle cx="313.47" cy="117.88" r="4.44"/>
    <circle cx="334.68" cy="110.82" r="4.44"/>
  </g>
  <g style="fill:#C80000" id="KKE">
    <circle cx="294.17" cy="129.10" r="4.44"/>
    <circle cx="325.57" cy="117.71" r="4.44"/>
    <circle cx="274.83" cy="140.38" r="4.44"/>
    <circle cx="306.19" cy="128.98" r="4.44"/>
    <circle cx="255.44" cy="151.75" r="4.44"/>
    <circle cx="286.75" cy="140.31" r="4.44"/>
    <circle cx="338.89" cy="121.13" r="4.44"/>
    <circle cx="318.07" cy="128.89" r="4.44"/>
    <circle cx="329.84" cy="128.83" r="4.44"/>
    <circle cx="298.52" cy="140.28" r="4.44"/>
    <circle cx="267.21" cy="151.76" r="4.44"/>
    <circle cx="310.18" cy="140.25" r="4.44"/>
    <circle cx="342.41" cy="131.69" r="4.44"/>
    <circle cx="278.82" cy="151.77" r="4.44"/>
    <circle cx="321.75" cy="140.24" r="4.44"/>
  </g>
  <g style="fill:#4EDF75" id="ANAL">
    <circle cx="333.26" cy="140.24" r="4.44"/>
    <circle cx="290.34" cy="151.79" r="4.44"/>
    <circle cx="301.78" cy="151.81" r="4.44"/>
    <circle cx="345.23" cy="142.46" r="4.44"/>
    <circle cx="313.17" cy="151.83" r="4.44"/>
    <circle cx="258.84" cy="163.47" r="4.44"/>
    <circle cx="324.51" cy="151.86" r="4.44"/>
    <circle cx="270.17" cy="163.51" r="4.44"/>
    <circle cx="335.82" cy="151.88" r="4.44"/>
    <circle cx="281.45" cy="163.55" r="4.44"/>
    <circle cx="347.34" cy="153.39" r="4.44"/>
    <circle cx="292.70" cy="163.58" r="4.44"/>
    <circle cx="303.92" cy="163.61" r="4.44"/>
  </g>
  <g style="fill:#2D902D" id="PASOK">
    <circle cx="315.12" cy="163.63" r="4.44"/>
    <circle cx="326.31" cy="163.65" r="4.44"/>
    <circle cx="337.49" cy="163.67" r="4.44"/>
    <circle cx="348.73" cy="164.44" r="4.44"/>
    <circle cx="260.43" cy="175.56" r="4.44"/>
    <circle cx="271.56" cy="175.56" r="4.44"/>
    <circle cx="282.68" cy="175.56" r="4.44"/>
    <circle cx="293.80" cy="175.56" r="4.44"/>
    <circle cx="304.92" cy="175.56" r="4.44"/>
    <circle cx="316.04" cy="175.56" r="4.44"/>
    <circle cx="327.16" cy="175.56" r="4.44"/>
    <circle cx="338.27" cy="175.56" r="4.44"/>
    <circle cx="349.39" cy="175.56" r="4.44"/>
  </g>
</g>
</svg>
