<?xml version="1.0" encoding="UTF-8" standalone="no"?>
<svg xmlns:svg="http://www.w3.org/2000/svg"
xmlns="http://www.w3.org/2000/svg" version="1.1"
width="360" height="185">
<!-- Created with the Wikimedia parliament diagram creator (http://tools.wmflabs.org/parliamentdiagram/parliamentinputform.html) -->
<g>
  <g style="fill:#ffffff" id="Party1">
    <circle cx="12.24" cy="174.29" r="5.71" name="0" data-part="seat"></circle>
    <circle cx="26.53" cy="174.29" r="5.71" name="1" data-part="seat"></circle>
    <circle cx="40.83" cy="174.29" r="5.71" name="2" data-part="seat"></circle>
    <circle cx="55.13" cy="174.29" r="5.71" name="3" data-part="seat"></circle>
    <circle cx="69.43" cy="174.29" r="5.71" name="4" data-part="seat"></circle>
    <circle cx="83.74" cy="174.29" r="5.71" name="5" data-part="seat"></circle>
    <circle cx="98.06" cy="174.29" r="5.71" name="6" data-part="seat"></circle>
    <circle cx="14.08" cy="154.54" r="5.71" name="7" data-part="seat"></circle>
    <circle cx="28.51" cy="154.78" r="5.71" name="8" data-part="seat"></circle>
    <circle cx="43.13" cy="154.15" r="5.71" name="9" data-part="seat"></circle>
    <circle cx="57.65" cy="154.40" r="5.71" name="10" data-part="seat"></circle>
    <circle cx="72.21" cy="154.73" r="5.71" name="11" data-part="seat"></circle>
    <circle cx="18.24" cy="135.15" r="5.71" name="12" data-part="seat"></circle>
    <circle cx="87.20" cy="153.80" r="5.71" name="13" data-part="seat"></circle>
    <circle cx="32.96" cy="135.67" r="5.71" name="14" data-part="seat"></circle>
    <circle cx="102.02" cy="154.18" r="5.71" name="15" data-part="seat"></circle>
    <circle cx="48.34" cy="134.55" r="5.71" name="16" data-part="seat"></circle>
    <circle cx="63.31" cy="135.17" r="5.71" name="17" data-part="seat"></circle>
    <circle cx="24.66" cy="116.39" r="5.71" name="18" data-part="seat"></circle>
    <circle cx="78.42" cy="135.96" r="5.71" name="19" data-part="seat"></circle>
    <circle cx="39.81" cy="117.30" r="5.71" name="20" data-part="seat"></circle>
    <circle cx="56.33" cy="115.92" r="5.71" name="21" data-part="seat"></circle>
    <circle cx="94.97" cy="134.52" r="5.71" name="22" data-part="seat"></circle>
    <circle cx="33.25" cy="98.51" r="5.71" name="23" data-part="seat"></circle>
    <circle cx="71.98" cy="117.10" r="5.71" name="24" data-part="seat"></circle>
    <circle cx="48.95" cy="99.94" r="5.71" name="25" data-part="seat"></circle>
    <circle cx="110.84" cy="135.68" r="5.71" name="26" data-part="seat"></circle>
    <circle cx="87.87" cy="118.61" r="5.71" name="27" data-part="seat"></circle>
    <circle cx="66.95" cy="98.64" r="5.71" name="28" data-part="seat"></circle>
    <circle cx="43.88" cy="81.77" r="5.71" name="29" data-part="seat"></circle>
    <circle cx="60.22" cy="83.89" r="5.71" name="30" data-part="seat"></circle>
    <circle cx="83.42" cy="100.64" r="5.71" name="31" data-part="seat"></circle>
    <circle cx="106.69" cy="117.36" r="5.71" name="32" data-part="seat"></circle>
    <circle cx="56.42" cy="66.41" r="5.71" name="33" data-part="seat"></circle>
    <circle cx="100.25" cy="103.21" r="5.71" name="34" data-part="seat"></circle>
    <circle cx="79.96" cy="83.09" r="5.71" name="35" data-part="seat"></circle>
    <circle cx="73.45" cy="69.41" r="5.71" name="36" data-part="seat"></circle>
    <circle cx="123.97" cy="119.93" r="5.71" name="37" data-part="seat"></circle>
    <circle cx="97.35" cy="86.22" r="5.71" name="38" data-part="seat"></circle>
    <circle cx="70.68" cy="52.62" r="5.71" name="39" data-part="seat"></circle>
    <circle cx="95.08" cy="69.59" r="5.71" name="40" data-part="seat"></circle>
    <circle cx="121.81" cy="103.11" r="5.71" name="41" data-part="seat"></circle>
    <circle cx="88.41" cy="56.73" r="5.71" name="42" data-part="seat"></circle>
    <circle cx="115.17" cy="90.25" r="5.71" name="43" data-part="seat"></circle>
    <circle cx="86.46" cy="40.62" r="5.71" name="44" data-part="seat"></circle>
    <circle cx="113.40" cy="74.22" r="5.71" name="45" data-part="seat"></circle>
    <circle cx="104.87" cy="46.06" r="5.71" name="46" data-part="seat"></circle>
    <circle cx="112.01" cy="58.43" r="5.71" name="47" data-part="seat"></circle>
    <circle cx="140.59" cy="107.93" r="5.71" name="48" data-part="seat"></circle>
    <circle cx="103.55" cy="30.56" r="5.71" name="49" data-part="seat"></circle>
    <circle cx="132.16" cy="80.16" r="5.71" name="50" data-part="seat"></circle>
    <circle cx="139.64" cy="92.43" r="5.71" name="51" data-part="seat"></circle>
    <circle cx="131.17" cy="64.93" r="5.71" name="52" data-part="seat"></circle>
    <circle cx="122.55" cy="37.58" r="5.71" name="53" data-part="seat"></circle>
    <circle cx="130.38" cy="49.85" r="5.71" name="54" data-part="seat"></circle>
    <circle cx="121.71" cy="22.59" r="5.71" name="55" data-part="seat"></circle>
    <circle cx="150.67" cy="73.24" r="5.71" name="56" data-part="seat"></circle>
    <circle cx="141.17" cy="31.42" r="5.71" name="57" data-part="seat"></circle>
    <circle cx="159.66" cy="100.42" r="5.71" name="58" data-part="seat"></circle>
    <circle cx="150.19" cy="58.61" r="5.71" name="59" data-part="seat"></circle>
    <circle cx="140.68" cy="16.81" r="5.71" name="60" data-part="seat"></circle>
    <circle cx="149.80" cy="44.03" r="5.71" name="61" data-part="seat"></circle>
    <circle cx="159.34" cy="85.81" r="5.71" name="62" data-part="seat"></circle>
    <circle cx="160.43" cy="27.68" r="5.71" name="63" data-part="seat"></circle>
    <circle cx="160.20" cy="13.31" r="5.71" name="64" data-part="seat"></circle>
    <circle cx="170.12" cy="69.73" r="5.71" name="65" data-part="seat"></circle>
    <circle cx="169.98" cy="55.40" r="5.71" name="66" data-part="seat"></circle>
    <circle cx="169.86" cy="41.08" r="5.71" name="67" data-part="seat"></circle>
    <circle cx="180.00" cy="12.14" r="5.71" name="68" data-part="seat"></circle>
    <circle cx="180.00" cy="83.57" r="5.71" name="69" data-part="seat"></circle>
    <circle cx="180.00" cy="97.86" r="5.71" name="70" data-part="seat"></circle>
    <circle cx="180.00" cy="26.43" r="5.71" name="71" data-part="seat"></circle>
    <circle cx="190.14" cy="41.08" r="5.71" name="72" data-part="seat"></circle>
    <circle cx="190.02" cy="55.40" r="5.71" name="73" data-part="seat"></circle>
    <circle cx="189.88" cy="69.73" r="5.71" name="74" data-part="seat"></circle>
    <circle cx="199.80" cy="13.31" r="5.71" name="75" data-part="seat"></circle>
    <circle cx="199.57" cy="27.68" r="5.71" name="76" data-part="seat"></circle>
    <circle cx="200.66" cy="85.81" r="5.71" name="77" data-part="seat"></circle>
    <circle cx="210.20" cy="44.03" r="5.71" name="78" data-part="seat"></circle>
    <circle cx="219.32" cy="16.81" r="5.71" name="79" data-part="seat"></circle>
    <circle cx="209.81" cy="58.61" r="5.71" name="80" data-part="seat"></circle>
    <circle cx="200.34" cy="100.42" r="5.71" name="81" data-part="seat"></circle>
    <circle cx="218.83" cy="31.42" r="5.71" name="82" data-part="seat"></circle>
    <circle cx="209.33" cy="73.24" r="5.71" name="83" data-part="seat"></circle>
    <circle cx="238.29" cy="22.59" r="5.71" name="84" data-part="seat"></circle>
    <circle cx="229.62" cy="49.85" r="5.71" name="85" data-part="seat"></circle>
    <circle cx="237.45" cy="37.58" r="5.71" name="86" data-part="seat"></circle>
    <circle cx="228.83" cy="64.93" r="5.71" name="87" data-part="seat"></circle>
    <circle cx="220.36" cy="92.43" r="5.71" name="88" data-part="seat"></circle>
    <circle cx="227.84" cy="80.16" r="5.71" name="89" data-part="seat"></circle>
    <circle cx="256.45" cy="30.56" r="5.71" name="90" data-part="seat"></circle>
    <circle cx="219.41" cy="107.93" r="5.71" name="91" data-part="seat"></circle>
    <circle cx="247.99" cy="58.43" r="5.71" name="92" data-part="seat"></circle>
    <circle cx="255.13" cy="46.06" r="5.71" name="93" data-part="seat"></circle>
    <circle cx="246.60" cy="74.22" r="5.71" name="94" data-part="seat"></circle>
    <circle cx="273.54" cy="40.62" r="5.71" name="95" data-part="seat"></circle>
    <circle cx="244.83" cy="90.25" r="5.71" name="96" data-part="seat"></circle>
    <circle cx="271.59" cy="56.73" r="5.71" name="97" data-part="seat"></circle>
    <circle cx="238.19" cy="103.11" r="5.71" name="98" data-part="seat"></circle>
    <circle cx="264.92" cy="69.59" r="5.71" name="99" data-part="seat"></circle>
    <circle cx="289.32" cy="52.62" r="5.71" name="100" data-part="seat"></circle>
    <circle cx="262.65" cy="86.22" r="5.71" name="101" data-part="seat"></circle>
    <circle cx="236.03" cy="119.93" r="5.71" name="102" data-part="seat"></circle>
    <circle cx="286.55" cy="69.41" r="5.71" name="103" data-part="seat"></circle>
    <circle cx="280.04" cy="83.09" r="5.71" name="104" data-part="seat"></circle>
    <circle cx="259.75" cy="103.21" r="5.71" name="105" data-part="seat"></circle>
    <circle cx="303.58" cy="66.41" r="5.71" name="106" data-part="seat"></circle>
    <circle cx="253.31" cy="117.36" r="5.71" name="107" data-part="seat"></circle>
    <circle cx="276.58" cy="100.64" r="5.71" name="108" data-part="seat"></circle>
    <circle cx="299.78" cy="83.89" r="5.71" name="109" data-part="seat"></circle>
    <circle cx="316.12" cy="81.77" r="5.71" name="110" data-part="seat"></circle>
    <circle cx="293.05" cy="98.64" r="5.71" name="111" data-part="seat"></circle>
    <circle cx="272.13" cy="118.61" r="5.71" name="112" data-part="seat"></circle>
    <circle cx="249.16" cy="135.68" r="5.71" name="113" data-part="seat"></circle>
    <circle cx="311.05" cy="99.94" r="5.71" name="114" data-part="seat"></circle>
    <circle cx="288.02" cy="117.10" r="5.71" name="115" data-part="seat"></circle>
    <circle cx="326.75" cy="98.51" r="5.71" name="116" data-part="seat"></circle>
    <circle cx="265.03" cy="134.52" r="5.71" name="117" data-part="seat"></circle>
    <circle cx="303.67" cy="115.92" r="5.71" name="118" data-part="seat"></circle>
    <circle cx="320.19" cy="117.30" r="5.71" name="119" data-part="seat"></circle>
    <circle cx="281.58" cy="135.96" r="5.71" name="120" data-part="seat"></circle>
    <circle cx="335.34" cy="116.39" r="5.71" name="121" data-part="seat"></circle>
    <circle cx="296.69" cy="135.17" r="5.71" name="122" data-part="seat"></circle>
    <circle cx="311.66" cy="134.55" r="5.71" name="123" data-part="seat"></circle>
    <circle cx="257.98" cy="154.18" r="5.71" name="124" data-part="seat"></circle>
    <circle cx="327.04" cy="135.67" r="5.71" name="125" data-part="seat"></circle>
    <circle cx="272.80" cy="153.80" r="5.71" name="126" data-part="seat"></circle>
    <circle cx="341.76" cy="135.15" r="5.71" name="127" data-part="seat"></circle>
    <circle cx="287.79" cy="154.73" r="5.71" name="128" data-part="seat"></circle>
    <circle cx="302.35" cy="154.40" r="5.71" name="129" data-part="seat"></circle>
    <circle cx="316.87" cy="154.15" r="5.71" name="130" data-part="seat"></circle>
    <circle cx="331.49" cy="154.78" r="5.71" name="131" data-part="seat"></circle>
    <circle cx="345.92" cy="154.54" r="5.71" name="132" data-part="seat"></circle>
    <circle cx="261.94" cy="174.29" r="5.71" name="133" data-part="seat"></circle>
    <circle cx="276.26" cy="174.29" r="5.71" name="134" data-part="seat"></circle>
    <circle cx="290.57" cy="174.29" r="5.71" name="135" data-part="seat"></circle>
    <circle cx="304.87" cy="174.29" r="5.71" name="136" data-part="seat"></circle>
    <circle cx="319.17" cy="174.29" r="5.71" name="137" data-part="seat"></circle>
    <circle cx="333.47" cy="174.29" r="5.71" name="138" data-part="seat"></circle>
    <circle cx="347.76" cy="174.29" r="5.71" name="139" data-part="seat"></circle>
  </g>
</g>
</svg>