<?xml version="1.0" encoding="UTF-8" standalone="no"?>
<svg xmlns:svg="http://www.w3.org/2000/svg"
xmlns="http://www.w3.org/2000/svg" version="1.1"
width="360" height="185">
<!-- Created with the Wikimedia parliament diagram creator (http://tools.wmflabs.org/parliamentdiagram/parliamentinputform.html) -->
<g>
  <g style="fill:#eeeeee" id="Empty">
        <circle cx="11.32" cy="175.00" r="5.00" name="0" data-part="seat"></circle>
    <circle cx="23.83" cy="175.00" r="5.00" name="1" data-part="seat"></circle>
    <circle cx="36.34" cy="175.00" r="5.00" name="2" data-part="seat"></circle>
    <circle cx="48.85" cy="175.00" r="5.00" name="3" data-part="seat"></circle>
    <circle cx="61.36" cy="175.00" r="5.00" name="4" data-part="seat"></circle>
    <circle cx="73.87" cy="175.00" r="5.00" name="5" data-part="seat"></circle>
    <circle cx="86.38" cy="175.00" r="5.00" name="6" data-part="seat"></circle>
    <circle cx="98.90" cy="175.01" r="5.00" name="7" data-part="seat"></circle>
    <circle cx="12.21" cy="162.03" r="5.00" name="8" data-part="seat"></circle>
    <circle cx="24.79" cy="162.04" r="5.00" name="9" data-part="seat"></circle>
    <circle cx="37.37" cy="162.06" r="5.00" name="10" data-part="seat"></circle>
    <circle cx="49.98" cy="162.08" r="5.00" name="11" data-part="seat"></circle>
    <circle cx="62.68" cy="161.63" r="5.00" name="12" data-part="seat"></circle>
    <circle cx="75.35" cy="161.60" r="5.00" name="13" data-part="seat"></circle>
    <circle cx="14.09" cy="149.17" r="5.00" name="14" data-part="seat"></circle>
    <circle cx="88.08" cy="161.57" r="5.00" name="15" data-part="seat"></circle>
    <circle cx="26.81" cy="149.21" r="5.00" name="16" data-part="seat"></circle>
    <circle cx="39.57" cy="149.26" r="5.00" name="17" data-part="seat"></circle>
    <circle cx="100.87" cy="161.54" r="5.00" name="18" data-part="seat"></circle>
    <circle cx="52.38" cy="149.33" r="5.00" name="19" data-part="seat"></circle>
    <circle cx="16.96" cy="136.49" r="5.00" name="20" data-part="seat"></circle>
    <circle cx="65.51" cy="148.49" r="5.00" name="21" data-part="seat"></circle>
    <circle cx="29.90" cy="136.59" r="5.00" name="22" data-part="seat"></circle>
    <circle cx="78.53" cy="148.50" r="5.00" name="23" data-part="seat"></circle>
    <circle cx="42.92" cy="136.72" r="5.00" name="24" data-part="seat"></circle>
    <circle cx="56.03" cy="136.88" r="5.00" name="25" data-part="seat"></circle>
    <circle cx="20.79" cy="124.06" r="5.00" name="26" data-part="seat"></circle>
    <circle cx="91.69" cy="148.53" r="5.00" name="27" data-part="seat"></circle>
    <circle cx="34.03" cy="124.27" r="5.00" name="28" data-part="seat"></circle>
    <circle cx="69.80" cy="135.75" r="5.00" name="29" data-part="seat"></circle>
    <circle cx="47.39" cy="124.53" r="5.00" name="30" data-part="seat"></circle>
    <circle cx="105.07" cy="148.59" r="5.00" name="31" data-part="seat"></circle>
    <circle cx="25.57" cy="111.97" r="5.00" name="32" data-part="seat"></circle>
    <circle cx="83.33" cy="135.90" r="5.00" name="33" data-part="seat"></circle>
    <circle cx="60.90" cy="124.85" r="5.00" name="34" data-part="seat"></circle>
    <circle cx="39.16" cy="112.33" r="5.00" name="35" data-part="seat"></circle>
    <circle cx="52.93" cy="112.79" r="5.00" name="36" data-part="seat"></circle>
    <circle cx="97.14" cy="136.14" r="5.00" name="37" data-part="seat"></circle>
    <circle cx="31.26" cy="100.29" r="5.00" name="38" data-part="seat"></circle>
    <circle cx="75.51" cy="123.59" r="5.00" name="39" data-part="seat"></circle>
    <circle cx="45.27" cy="100.87" r="5.00" name="40" data-part="seat"></circle>
    <circle cx="66.92" cy="113.36" r="5.00" name="41" data-part="seat"></circle>
    <circle cx="89.70" cy="124.02" r="5.00" name="42" data-part="seat"></circle>
    <circle cx="111.36" cy="136.53" r="5.00" name="43" data-part="seat"></circle>
    <circle cx="37.84" cy="89.07" r="5.00" name="44" data-part="seat"></circle>
    <circle cx="59.51" cy="101.59" r="5.00" name="45" data-part="seat"></circle>
    <circle cx="82.55" cy="112.14" r="5.00" name="46" data-part="seat"></circle>
    <circle cx="52.31" cy="89.95" r="5.00" name="47" data-part="seat"></circle>
    <circle cx="74.05" cy="102.53" r="5.00" name="48" data-part="seat"></circle>
    <circle cx="104.32" cy="124.66" r="5.00" name="49" data-part="seat"></circle>
    <circle cx="45.26" cy="78.40" r="5.00" name="50" data-part="seat"></circle>
    <circle cx="67.08" cy="91.04" r="5.00" name="51" data-part="seat"></circle>
    <circle cx="97.51" cy="113.03" r="5.00" name="52" data-part="seat"></circle>
    <circle cx="60.23" cy="79.65" r="5.00" name="53" data-part="seat"></circle>
    <circle cx="90.84" cy="101.56" r="5.00" name="54" data-part="seat"></circle>
    <circle cx="53.48" cy="68.33" r="5.00" name="55" data-part="seat"></circle>
    <circle cx="82.22" cy="92.45" r="5.00" name="56" data-part="seat"></circle>
    <circle cx="119.58" cy="125.68" r="5.00" name="57" data-part="seat"></circle>
    <circle cx="75.57" cy="81.22" r="5.00" name="58" data-part="seat"></circle>
    <circle cx="113.08" cy="114.34" r="5.00" name="59" data-part="seat"></circle>
    <circle cx="68.99" cy="70.05" r="5.00" name="60" data-part="seat"></circle>
    <circle cx="62.46" cy="58.92" r="5.00" name="61" data-part="seat"></circle>
    <circle cx="106.66" cy="103.12" r="5.00" name="62" data-part="seat"></circle>
    <circle cx="91.34" cy="83.22" r="5.00" name="63" data-part="seat"></circle>
    <circle cx="100.28" cy="91.99" r="5.00" name="64" data-part="seat"></circle>
    <circle cx="84.91" cy="72.20" r="5.00" name="65" data-part="seat"></circle>
    <circle cx="78.50" cy="61.20" r="5.00" name="66" data-part="seat"></circle>
    <circle cx="72.13" cy="50.23" r="5.00" name="67" data-part="seat"></circle>
    <circle cx="129.49" cy="116.35" r="5.00" name="68" data-part="seat"></circle>
    <circle cx="123.24" cy="105.39" r="5.00" name="69" data-part="seat"></circle>
    <circle cx="101.33" cy="74.94" r="5.00" name="70" data-part="seat"></circle>
    <circle cx="116.98" cy="94.45" r="5.00" name="71" data-part="seat"></circle>
    <circle cx="95.02" cy="64.06" r="5.00" name="72" data-part="seat"></circle>
    <circle cx="88.73" cy="53.18" r="5.00" name="73" data-part="seat"></circle>
    <circle cx="110.73" cy="83.55" r="5.00" name="74" data-part="seat"></circle>
    <circle cx="82.44" cy="42.31" r="5.00" name="75" data-part="seat"></circle>
    <circle cx="112.09" cy="67.69" r="5.00" name="76" data-part="seat"></circle>
    <circle cx="105.83" cy="56.86" r="5.00" name="77" data-part="seat"></circle>
    <circle cx="99.58" cy="46.04" r="5.00" name="78" data-part="seat"></circle>
    <circle cx="93.32" cy="35.21" r="5.00" name="79" data-part="seat"></circle>
    <circle cx="122.07" cy="76.34" r="5.00" name="80" data-part="seat"></circle>
    <circle cx="128.32" cy="87.16" r="5.00" name="81" data-part="seat"></circle>
    <circle cx="134.58" cy="97.99" r="5.00" name="82" data-part="seat"></circle>
    <circle cx="140.83" cy="108.82" r="5.00" name="83" data-part="seat"></circle>
    <circle cx="104.73" cy="28.97" r="5.00" name="84" data-part="seat"></circle>
    <circle cx="110.99" cy="39.82" r="5.00" name="85" data-part="seat"></circle>
    <circle cx="117.24" cy="50.67" r="5.00" name="86" data-part="seat"></circle>
    <circle cx="123.50" cy="61.53" r="5.00" name="87" data-part="seat"></circle>
    <circle cx="134.16" cy="70.46" r="5.00" name="88" data-part="seat"></circle>
    <circle cx="116.58" cy="23.62" r="5.00" name="89" data-part="seat"></circle>
    <circle cx="140.50" cy="81.37" r="5.00" name="90" data-part="seat"></circle>
    <circle cx="122.87" cy="34.57" r="5.00" name="91" data-part="seat"></circle>
    <circle cx="129.17" cy="45.54" r="5.00" name="92" data-part="seat"></circle>
    <circle cx="146.86" cy="92.30" r="5.00" name="93" data-part="seat"></circle>
    <circle cx="135.48" cy="56.53" r="5.00" name="94" data-part="seat"></circle>
    <circle cx="153.26" cy="103.28" r="5.00" name="95" data-part="seat"></circle>
    <circle cx="128.81" cy="19.20" r="5.00" name="96" data-part="seat"></circle>
    <circle cx="135.15" cy="30.32" r="5.00" name="97" data-part="seat"></circle>
    <circle cx="146.83" cy="65.98" r="5.00" name="98" data-part="seat"></circle>
    <circle cx="141.51" cy="41.50" r="5.00" name="99" data-part="seat"></circle>
    <circle cx="153.31" cy="77.16" r="5.00" name="100" data-part="seat"></circle>
    <circle cx="147.88" cy="52.74" r="5.00" name="101" data-part="seat"></circle>
    <circle cx="141.34" cy="15.74" r="5.00" name="102" data-part="seat"></circle>
    <circle cx="159.84" cy="88.44" r="5.00" name="103" data-part="seat"></circle>
    <circle cx="147.74" cy="27.12" r="5.00" name="104" data-part="seat"></circle>
    <circle cx="154.16" cy="38.59" r="5.00" name="105" data-part="seat"></circle>
    <circle cx="159.93" cy="62.96" r="5.00" name="106" data-part="seat"></circle>
    <circle cx="166.44" cy="99.89" r="5.00" name="107" data-part="seat"></circle>
    <circle cx="154.10" cy="13.25" r="5.00" name="108" data-part="seat"></circle>
    <circle cx="160.60" cy="50.19" r="5.00" name="109" data-part="seat"></circle>
    <circle cx="166.54" cy="74.61" r="5.00" name="110" data-part="seat"></circle>
    <circle cx="160.56" cy="24.96" r="5.00" name="111" data-part="seat"></circle>
    <circle cx="167.03" cy="36.84" r="5.00" name="112" data-part="seat"></circle>
    <circle cx="167.01" cy="11.75" r="5.00" name="113" data-part="seat"></circle>
    <circle cx="173.23" cy="86.49" r="5.00" name="114" data-part="seat"></circle>
    <circle cx="173.28" cy="61.44" r="5.00" name="115" data-part="seat"></circle>
    <circle cx="173.51" cy="48.91" r="5.00" name="116" data-part="seat"></circle>
    <circle cx="173.50" cy="23.89" r="5.00" name="117" data-part="seat"></circle>
    <circle cx="180.00" cy="11.25" r="5.00" name="118" data-part="seat"></circle>
    <circle cx="180.00" cy="36.25" r="5.00" name="119" data-part="seat"></circle>
    <circle cx="180.00" cy="73.75" r="5.00" name="120" data-part="seat"></circle>
    <circle cx="180.00" cy="98.75" r="5.00" name="121" data-part="seat"></circle>
    <circle cx="186.50" cy="23.89" r="5.00" name="122" data-part="seat"></circle>
    <circle cx="186.49" cy="48.91" r="5.00" name="123" data-part="seat"></circle>
    <circle cx="186.72" cy="61.44" r="5.00" name="124" data-part="seat"></circle>
    <circle cx="186.77" cy="86.49" r="5.00" name="125" data-part="seat"></circle>
    <circle cx="192.99" cy="11.75" r="5.00" name="126" data-part="seat"></circle>
    <circle cx="192.97" cy="36.84" r="5.00" name="127" data-part="seat"></circle>
    <circle cx="199.44" cy="24.96" r="5.00" name="128" data-part="seat"></circle>
    <circle cx="193.46" cy="74.61" r="5.00" name="129" data-part="seat"></circle>
    <circle cx="199.40" cy="50.19" r="5.00" name="130" data-part="seat"></circle>
    <circle cx="205.90" cy="13.25" r="5.00" name="131" data-part="seat"></circle>
    <circle cx="193.56" cy="99.89" r="5.00" name="132" data-part="seat"></circle>
    <circle cx="200.07" cy="62.96" r="5.00" name="133" data-part="seat"></circle>
    <circle cx="205.84" cy="38.59" r="5.00" name="134" data-part="seat"></circle>
    <circle cx="212.26" cy="27.12" r="5.00" name="135" data-part="seat"></circle>
    <circle cx="200.16" cy="88.44" r="5.00" name="136" data-part="seat"></circle>
    <circle cx="218.66" cy="15.74" r="5.00" name="137" data-part="seat"></circle>
    <circle cx="212.12" cy="52.74" r="5.00" name="138" data-part="seat"></circle>
    <circle cx="206.69" cy="77.16" r="5.00" name="139" data-part="seat"></circle>
    <circle cx="218.49" cy="41.50" r="5.00" name="140" data-part="seat"></circle>
    <circle cx="213.17" cy="65.98" r="5.00" name="141" data-part="seat"></circle>
    <circle cx="224.85" cy="30.32" r="5.00" name="142" data-part="seat"></circle>
    <circle cx="231.19" cy="19.20" r="5.00" name="143" data-part="seat"></circle>
    <circle cx="206.74" cy="103.28" r="5.00" name="144" data-part="seat"></circle>
    <circle cx="224.52" cy="56.53" r="5.00" name="145" data-part="seat"></circle>
    <circle cx="213.14" cy="92.30" r="5.00" name="146" data-part="seat"></circle>
    <circle cx="230.83" cy="45.54" r="5.00" name="147" data-part="seat"></circle>
    <circle cx="237.13" cy="34.57" r="5.00" name="148" data-part="seat"></circle>
    <circle cx="219.50" cy="81.37" r="5.00" name="149" data-part="seat"></circle>
    <circle cx="243.42" cy="23.62" r="5.00" name="150" data-part="seat"></circle>
    <circle cx="225.84" cy="70.46" r="5.00" name="151" data-part="seat"></circle>
    <circle cx="236.50" cy="61.53" r="5.00" name="152" data-part="seat"></circle>
    <circle cx="242.76" cy="50.67" r="5.00" name="153" data-part="seat"></circle>
    <circle cx="249.01" cy="39.82" r="5.00" name="154" data-part="seat"></circle>
    <circle cx="255.27" cy="28.97" r="5.00" name="155" data-part="seat"></circle>
    <circle cx="219.17" cy="108.82" r="5.00" name="156" data-part="seat"></circle>
    <circle cx="225.42" cy="97.99" r="5.00" name="157" data-part="seat"></circle>
    <circle cx="231.68" cy="87.16" r="5.00" name="158" data-part="seat"></circle>
    <circle cx="237.93" cy="76.34" r="5.00" name="159" data-part="seat"></circle>
    <circle cx="266.68" cy="35.21" r="5.00" name="160" data-part="seat"></circle>
    <circle cx="260.42" cy="46.04" r="5.00" name="161" data-part="seat"></circle>
    <circle cx="254.17" cy="56.86" r="5.00" name="162" data-part="seat"></circle>
    <circle cx="247.91" cy="67.69" r="5.00" name="163" data-part="seat"></circle>
    <circle cx="277.56" cy="42.31" r="5.00" name="164" data-part="seat"></circle>
    <circle cx="249.27" cy="83.55" r="5.00" name="165" data-part="seat"></circle>
    <circle cx="271.27" cy="53.18" r="5.00" name="166" data-part="seat"></circle>
    <circle cx="264.98" cy="64.06" r="5.00" name="167" data-part="seat"></circle>
    <circle cx="243.02" cy="94.45" r="5.00" name="168" data-part="seat"></circle>
    <circle cx="258.67" cy="74.94" r="5.00" name="169" data-part="seat"></circle>
    <circle cx="236.76" cy="105.39" r="5.00" name="170" data-part="seat"></circle>
    <circle cx="230.51" cy="116.35" r="5.00" name="171" data-part="seat"></circle>
    <circle cx="287.87" cy="50.23" r="5.00" name="172" data-part="seat"></circle>
    <circle cx="281.50" cy="61.20" r="5.00" name="173" data-part="seat"></circle>
    <circle cx="275.09" cy="72.20" r="5.00" name="174" data-part="seat"></circle>
    <circle cx="259.72" cy="91.99" r="5.00" name="175" data-part="seat"></circle>
    <circle cx="268.66" cy="83.22" r="5.00" name="176" data-part="seat"></circle>
    <circle cx="253.34" cy="103.12" r="5.00" name="177" data-part="seat"></circle>
    <circle cx="297.54" cy="58.92" r="5.00" name="178" data-part="seat"></circle>
    <circle cx="291.01" cy="70.05" r="5.00" name="179" data-part="seat"></circle>
    <circle cx="246.92" cy="114.34" r="5.00" name="180" data-part="seat"></circle>
    <circle cx="284.43" cy="81.22" r="5.00" name="181" data-part="seat"></circle>
    <circle cx="240.42" cy="125.68" r="5.00" name="182" data-part="seat"></circle>
    <circle cx="277.78" cy="92.45" r="5.00" name="183" data-part="seat"></circle>
    <circle cx="306.52" cy="68.33" r="5.00" name="184" data-part="seat"></circle>
    <circle cx="269.16" cy="101.56" r="5.00" name="185" data-part="seat"></circle>
    <circle cx="299.77" cy="79.65" r="5.00" name="186" data-part="seat"></circle>
    <circle cx="262.49" cy="113.03" r="5.00" name="187" data-part="seat"></circle>
    <circle cx="292.92" cy="91.04" r="5.00" name="188" data-part="seat"></circle>
    <circle cx="314.74" cy="78.40" r="5.00" name="189" data-part="seat"></circle>
    <circle cx="255.68" cy="124.66" r="5.00" name="190" data-part="seat"></circle>
    <circle cx="285.95" cy="102.53" r="5.00" name="191" data-part="seat"></circle>
    <circle cx="307.69" cy="89.95" r="5.00" name="192" data-part="seat"></circle>
    <circle cx="277.45" cy="112.14" r="5.00" name="193" data-part="seat"></circle>
    <circle cx="300.49" cy="101.59" r="5.00" name="194" data-part="seat"></circle>
    <circle cx="322.16" cy="89.07" r="5.00" name="195" data-part="seat"></circle>
    <circle cx="248.64" cy="136.53" r="5.00" name="196" data-part="seat"></circle>
    <circle cx="270.30" cy="124.02" r="5.00" name="197" data-part="seat"></circle>
    <circle cx="293.08" cy="113.36" r="5.00" name="198" data-part="seat"></circle>
    <circle cx="314.73" cy="100.87" r="5.00" name="199" data-part="seat"></circle>
    <circle cx="284.49" cy="123.59" r="5.00" name="200" data-part="seat"></circle>
    <circle cx="328.74" cy="100.29" r="5.00" name="201" data-part="seat"></circle>
    <circle cx="262.86" cy="136.14" r="5.00" name="202" data-part="seat"></circle>
    <circle cx="307.07" cy="112.79" r="5.00" name="203" data-part="seat"></circle>
    <circle cx="320.84" cy="112.33" r="5.00" name="204" data-part="seat"></circle>
    <circle cx="299.10" cy="124.85" r="5.00" name="205" data-part="seat"></circle>
    <circle cx="276.67" cy="135.90" r="5.00" name="206" data-part="seat"></circle>
    <circle cx="334.43" cy="111.97" r="5.00" name="207" data-part="seat"></circle>
    <circle cx="254.93" cy="148.59" r="5.00" name="208" data-part="seat"></circle>
    <circle cx="312.61" cy="124.53" r="5.00" name="209" data-part="seat"></circle>
    <circle cx="290.20" cy="135.75" r="5.00" name="210" data-part="seat"></circle>
    <circle cx="325.97" cy="124.27" r="5.00" name="211" data-part="seat"></circle>
    <circle cx="268.31" cy="148.53" r="5.00" name="212" data-part="seat"></circle>
    <circle cx="339.21" cy="124.06" r="5.00" name="213" data-part="seat"></circle>
    <circle cx="303.97" cy="136.88" r="5.00" name="214" data-part="seat"></circle>
    <circle cx="317.08" cy="136.72" r="5.00" name="215" data-part="seat"></circle>
    <circle cx="281.47" cy="148.50" r="5.00" name="216" data-part="seat"></circle>
    <circle cx="330.10" cy="136.59" r="5.00" name="217" data-part="seat"></circle>
    <circle cx="294.49" cy="148.49" r="5.00" name="218" data-part="seat"></circle>
    <circle cx="343.04" cy="136.49" r="5.00" name="219" data-part="seat"></circle>
    <circle cx="307.62" cy="149.33" r="5.00" name="220" data-part="seat"></circle>
    <circle cx="259.13" cy="161.54" r="5.00" name="221" data-part="seat"></circle>
    <circle cx="320.43" cy="149.26" r="5.00" name="222" data-part="seat"></circle>
    <circle cx="333.19" cy="149.21" r="5.00" name="223" data-part="seat"></circle>
    <circle cx="271.92" cy="161.57" r="5.00" name="224" data-part="seat"></circle>
    <circle cx="345.91" cy="149.17" r="5.00" name="225" data-part="seat"></circle>
    <circle cx="284.65" cy="161.60" r="5.00" name="226" data-part="seat"></circle>
    <circle cx="297.32" cy="161.63" r="5.00" name="227" data-part="seat"></circle>
    <circle cx="310.02" cy="162.08" r="5.00" name="228" data-part="seat"></circle>
    <circle cx="322.63" cy="162.06" r="5.00" name="229" data-part="seat"></circle>
    <circle cx="335.21" cy="162.04" r="5.00" name="230" data-part="seat"></circle>
    <circle cx="347.79" cy="162.03" r="5.00" name="231" data-part="seat"></circle>
    <circle cx="261.10" cy="175.01" r="5.00" name="232" data-part="seat"></circle>
    <circle cx="273.62" cy="175.00" r="5.00" name="233" data-part="seat"></circle>
    <circle cx="286.13" cy="175.00" r="5.00" name="234" data-part="seat"></circle>
    <circle cx="298.64" cy="175.00" r="5.00" name="235" data-part="seat"></circle>
    <circle cx="311.15" cy="175.00" r="5.00" name="236" data-part="seat"></circle>
    <circle cx="323.66" cy="175.00" r="5.00" name="237" data-part="seat"></circle>
    <circle cx="336.17" cy="175.00" r="5.00" name="238" data-part="seat"></circle>
    <circle cx="348.68" cy="175.00" r="5.00" name="239" data-part="seat"></circle>
  </g>
</g>
</svg>