<?xml version="1.0" encoding="UTF-8" standalone="no"?>
<svg xmlns:svg="http://www.w3.org/2000/svg"
xmlns="http://www.w3.org/2000/svg" version="1.1"
width="360" height="185">
<!-- Created with the Wikimedia parliament diagram creator (http://tools.wmflabs.org/parliamentdiagram/parliamentinputform.html) -->
<g>
  <g style="fill:#EEEEEE" id="Empty">
    <circle cx="12.24" cy="174.29" r="5.71" name="0" data-part="seat"></circle>
    <circle cx="26.53" cy="174.29" r="5.71" name="1" data-part="seat"></circle>
    <circle cx="40.83" cy="174.29" r="5.71" name="2" data-part="seat"></circle>
    <circle cx="55.13" cy="174.29" r="5.71" name="3" data-part="seat"></circle>
    <circle cx="69.43" cy="174.29" r="5.71" name="4" data-part="seat"></circle>
    <circle cx="83.74" cy="174.29" r="5.71" name="5" data-part="seat"></circle>
    <circle cx="98.06" cy="174.29" r="5.71" name="6" data-part="seat"></circle>
    <circle cx="13.63" cy="157.71" r="5.71" name="7" data-part="seat"></circle>
    <circle cx="28.17" cy="156.93" r="5.71" name="8" data-part="seat"></circle>
    <circle cx="42.69" cy="156.64" r="5.71" name="9" data-part="seat"></circle>
    <circle cx="57.12" cy="157.09" r="5.71" name="10" data-part="seat"></circle>
    <circle cx="71.75" cy="156.76" r="5.71" name="11" data-part="seat"></circle>
    <circle cx="16.65" cy="141.35" r="5.71" name="12" data-part="seat"></circle>
    <circle cx="86.53" cy="156.31" r="5.71" name="13" data-part="seat"></circle>
    <circle cx="31.77" cy="139.87" r="5.71" name="14" data-part="seat"></circle>
    <circle cx="101.15" cy="156.99" r="5.71" name="15" data-part="seat"></circle>
    <circle cx="46.77" cy="139.37" r="5.71" name="16" data-part="seat"></circle>
    <circle cx="61.46" cy="140.32" r="5.71" name="17" data-part="seat"></circle>
    <circle cx="21.28" cy="125.37" r="5.71" name="18" data-part="seat"></circle>
    <circle cx="76.84" cy="139.82" r="5.71" name="19" data-part="seat"></circle>
    <circle cx="37.27" cy="123.32" r="5.71" name="20" data-part="seat"></circle>
    <circle cx="53.02" cy="122.77" r="5.71" name="21" data-part="seat"></circle>
    <circle cx="27.47" cy="109.93" r="5.71" name="22" data-part="seat"></circle>
    <circle cx="92.64" cy="139.18" r="5.71" name="23" data-part="seat"></circle>
    <circle cx="68.08" cy="124.32" r="5.71" name="24" data-part="seat"></circle>
    <circle cx="44.61" cy="107.51" r="5.71" name="25" data-part="seat"></circle>
    <circle cx="107.85" cy="140.73" r="5.71" name="26" data-part="seat"></circle>
    <circle cx="35.15" cy="95.18" r="5.71" name="27" data-part="seat"></circle>
    <circle cx="84.55" cy="123.90" r="5.71" name="28" data-part="seat"></circle>
    <circle cx="61.32" cy="107.09" r="5.71" name="29" data-part="seat"></circle>
    <circle cx="76.85" cy="109.39" r="5.71" name="30" data-part="seat"></circle>
    <circle cx="53.70" cy="92.63" r="5.71" name="31" data-part="seat"></circle>
    <circle cx="101.86" cy="123.50" r="5.71" name="32" data-part="seat"></circle>
    <circle cx="44.26" cy="81.26" r="5.71" name="33" data-part="seat"></circle>
    <circle cx="71.56" cy="92.59" r="5.71" name="34" data-part="seat"></circle>
    <circle cx="94.70" cy="109.42" r="5.71" name="35" data-part="seat"></circle>
    <circle cx="117.86" cy="126.27" r="5.71" name="36" data-part="seat"></circle>
    <circle cx="64.42" cy="78.88" r="5.71" name="37" data-part="seat"></circle>
    <circle cx="54.70" cy="68.30" r="5.71" name="38" data-part="seat"></circle>
    <circle cx="87.60" cy="95.81" r="5.71" name="39" data-part="seat"></circle>
    <circle cx="83.55" cy="79.51" r="5.71" name="40" data-part="seat"></circle>
    <circle cx="113.86" cy="109.83" r="5.71" name="41" data-part="seat"></circle>
    <circle cx="66.37" cy="56.45" r="5.71" name="42" data-part="seat"></circle>
    <circle cx="76.63" cy="66.43" r="5.71" name="43" data-part="seat"></circle>
    <circle cx="107.03" cy="96.74" r="5.71" name="44" data-part="seat"></circle>
    <circle cx="100.12" cy="83.85" r="5.71" name="45" data-part="seat"></circle>
    <circle cx="79.16" cy="45.81" r="5.71" name="46" data-part="seat"></circle>
    <circle cx="130.72" cy="114.28" r="5.71" name="47" data-part="seat"></circle>
    <circle cx="97.11" cy="68.06" r="5.71" name="48" data-part="seat"></circle>
    <circle cx="90.17" cy="55.44" r="5.71" name="49" data-part="seat"></circle>
    <circle cx="128.22" cy="98.65" r="5.71" name="50" data-part="seat"></circle>
    <circle cx="121.22" cy="86.18" r="5.71" name="51" data-part="seat"></circle>
    <circle cx="114.18" cy="73.73" r="5.71" name="52" data-part="seat"></circle>
    <circle cx="92.94" cy="36.49" r="5.71" name="53" data-part="seat"></circle>
    <circle cx="104.87" cy="46.06" r="5.71" name="54" data-part="seat"></circle>
    <circle cx="112.01" cy="58.43" r="5.71" name="55" data-part="seat"></circle>
    <circle cx="107.57" cy="28.57" r="5.71" name="56" data-part="seat"></circle>
    <circle cx="145.84" cy="105.30" r="5.71" name="57" data-part="seat"></circle>
    <circle cx="129.49" cy="65.66" r="5.71" name="58" data-part="seat"></circle>
    <circle cx="136.91" cy="78.02" r="5.71" name="59" data-part="seat"></circle>
    <circle cx="120.54" cy="38.41" r="5.71" name="60" data-part="seat"></circle>
    <circle cx="128.02" cy="50.78" r="5.71" name="61" data-part="seat"></circle>
    <circle cx="144.42" cy="90.38" r="5.71" name="62" data-part="seat"></circle>
    <circle cx="122.91" cy="22.15" r="5.71" name="63" data-part="seat"></circle>
    <circle cx="136.97" cy="32.58" r="5.71" name="64" data-part="seat"></circle>
    <circle cx="145.78" cy="59.77" r="5.71" name="65" data-part="seat"></circle>
    <circle cx="144.87" cy="45.22" r="5.71" name="66" data-part="seat"></circle>
    <circle cx="138.82" cy="17.27" r="5.71" name="67" data-part="seat"></circle>
    <circle cx="153.70" cy="72.46" r="5.71" name="68" data-part="seat"></circle>
    <circle cx="162.52" cy="99.74" r="5.71" name="69" data-part="seat"></circle>
    <circle cx="161.89" cy="85.29" r="5.71" name="70" data-part="seat"></circle>
    <circle cx="153.96" cy="28.65" r="5.71" name="71" data-part="seat"></circle>
    <circle cx="155.13" cy="14.00" r="5.71" name="72" data-part="seat"></circle>
    <circle cx="162.72" cy="56.20" r="5.71" name="73" data-part="seat"></circle>
    <circle cx="162.29" cy="41.84" r="5.71" name="74" data-part="seat"></circle>
    <circle cx="171.16" cy="69.64" r="5.71" name="75" data-part="seat"></circle>
    <circle cx="171.28" cy="26.68" r="5.71" name="76" data-part="seat"></circle>
    <circle cx="171.68" cy="12.35" r="5.71" name="77" data-part="seat"></circle>
    <circle cx="180.00" cy="40.71" r="5.71" name="78" data-part="seat"></circle>
    <circle cx="180.00" cy="55.00" r="5.71" name="79" data-part="seat"></circle>
    <circle cx="180.00" cy="83.57" r="5.71" name="80" data-part="seat"></circle>
    <circle cx="180.00" cy="97.86" r="5.71" name="81" data-part="seat"></circle>
    <circle cx="188.32" cy="12.35" r="5.71" name="82" data-part="seat"></circle>
    <circle cx="188.72" cy="26.68" r="5.71" name="83" data-part="seat"></circle>
    <circle cx="188.84" cy="69.64" r="5.71" name="84" data-part="seat"></circle>
    <circle cx="197.71" cy="41.84" r="5.71" name="85" data-part="seat"></circle>
    <circle cx="197.28" cy="56.20" r="5.71" name="86" data-part="seat"></circle>
    <circle cx="204.87" cy="14.00" r="5.71" name="87" data-part="seat"></circle>
    <circle cx="206.04" cy="28.65" r="5.71" name="88" data-part="seat"></circle>
    <circle cx="198.11" cy="85.29" r="5.71" name="89" data-part="seat"></circle>
    <circle cx="197.48" cy="99.74" r="5.71" name="90" data-part="seat"></circle>
    <circle cx="206.30" cy="72.46" r="5.71" name="91" data-part="seat"></circle>
    <circle cx="221.18" cy="17.27" r="5.71" name="92" data-part="seat"></circle>
    <circle cx="215.13" cy="45.22" r="5.71" name="93" data-part="seat"></circle>
    <circle cx="214.22" cy="59.77" r="5.71" name="94" data-part="seat"></circle>
    <circle cx="223.03" cy="32.58" r="5.71" name="95" data-part="seat"></circle>
    <circle cx="237.09" cy="22.15" r="5.71" name="96" data-part="seat"></circle>
    <circle cx="215.58" cy="90.38" r="5.71" name="97" data-part="seat"></circle>
    <circle cx="231.98" cy="50.78" r="5.71" name="98" data-part="seat"></circle>
    <circle cx="239.46" cy="38.41" r="5.71" name="99" data-part="seat"></circle>
    <circle cx="223.09" cy="78.02" r="5.71" name="100" data-part="seat"></circle>
    <circle cx="230.51" cy="65.66" r="5.71" name="101" data-part="seat"></circle>
    <circle cx="214.16" cy="105.30" r="5.71" name="102" data-part="seat"></circle>
    <circle cx="252.43" cy="28.57" r="5.71" name="103" data-part="seat"></circle>
    <circle cx="247.99" cy="58.43" r="5.71" name="104" data-part="seat"></circle>
    <circle cx="255.13" cy="46.06" r="5.71" name="105" data-part="seat"></circle>
    <circle cx="267.06" cy="36.49" r="5.71" name="106" data-part="seat"></circle>
    <circle cx="245.82" cy="73.73" r="5.71" name="107" data-part="seat"></circle>
    <circle cx="238.78" cy="86.18" r="5.71" name="108" data-part="seat"></circle>
    <circle cx="231.78" cy="98.65" r="5.71" name="109" data-part="seat"></circle>
    <circle cx="269.83" cy="55.44" r="5.71" name="110" data-part="seat"></circle>
    <circle cx="262.89" cy="68.06" r="5.71" name="111" data-part="seat"></circle>
    <circle cx="229.28" cy="114.28" r="5.71" name="112" data-part="seat"></circle>
    <circle cx="280.84" cy="45.81" r="5.71" name="113" data-part="seat"></circle>
    <circle cx="259.88" cy="83.85" r="5.71" name="114" data-part="seat"></circle>
    <circle cx="252.97" cy="96.74" r="5.71" name="115" data-part="seat"></circle>
    <circle cx="283.37" cy="66.43" r="5.71" name="116" data-part="seat"></circle>
    <circle cx="293.63" cy="56.45" r="5.71" name="117" data-part="seat"></circle>
    <circle cx="246.14" cy="109.83" r="5.71" name="118" data-part="seat"></circle>
    <circle cx="276.45" cy="79.51" r="5.71" name="119" data-part="seat"></circle>
    <circle cx="272.40" cy="95.81" r="5.71" name="120" data-part="seat"></circle>
    <circle cx="305.30" cy="68.30" r="5.71" name="121" data-part="seat"></circle>
    <circle cx="295.58" cy="78.88" r="5.71" name="122" data-part="seat"></circle>
    <circle cx="242.14" cy="126.27" r="5.71" name="123" data-part="seat"></circle>
    <circle cx="265.30" cy="109.42" r="5.71" name="124" data-part="seat"></circle>
    <circle cx="288.44" cy="92.59" r="5.71" name="125" data-part="seat"></circle>
    <circle cx="315.74" cy="81.26" r="5.71" name="126" data-part="seat"></circle>
    <circle cx="258.14" cy="123.50" r="5.71" name="127" data-part="seat"></circle>
    <circle cx="306.30" cy="92.63" r="5.71" name="128" data-part="seat"></circle>
    <circle cx="283.15" cy="109.39" r="5.71" name="129" data-part="seat"></circle>
    <circle cx="298.68" cy="107.09" r="5.71" name="130" data-part="seat"></circle>
    <circle cx="275.45" cy="123.90" r="5.71" name="131" data-part="seat"></circle>
    <circle cx="324.85" cy="95.18" r="5.71" name="132" data-part="seat"></circle>
    <circle cx="252.15" cy="140.73" r="5.71" name="133" data-part="seat"></circle>
    <circle cx="315.39" cy="107.51" r="5.71" name="134" data-part="seat"></circle>
    <circle cx="291.92" cy="124.32" r="5.71" name="135" data-part="seat"></circle>
    <circle cx="267.36" cy="139.18" r="5.71" name="136" data-part="seat"></circle>
    <circle cx="332.53" cy="109.93" r="5.71" name="137" data-part="seat"></circle>
    <circle cx="306.98" cy="122.77" r="5.71" name="138" data-part="seat"></circle>
    <circle cx="322.73" cy="123.32" r="5.71" name="139" data-part="seat"></circle>
    <circle cx="283.16" cy="139.82" r="5.71" name="140" data-part="seat"></circle>
    <circle cx="338.72" cy="125.37" r="5.71" name="141" data-part="seat"></circle>
    <circle cx="298.54" cy="140.32" r="5.71" name="142" data-part="seat"></circle>
    <circle cx="313.23" cy="139.37" r="5.71" name="143" data-part="seat"></circle>
    <circle cx="258.85" cy="156.99" r="5.71" name="144" data-part="seat"></circle>
    <circle cx="328.23" cy="139.87" r="5.71" name="145" data-part="seat"></circle>
    <circle cx="273.47" cy="156.31" r="5.71" name="146" data-part="seat"></circle>
    <circle cx="343.35" cy="141.35" r="5.71" name="147" data-part="seat"></circle>
    <circle cx="288.25" cy="156.76" r="5.71" name="148" data-part="seat"></circle>
    <circle cx="302.88" cy="157.09" r="5.71" name="149" data-part="seat"></circle>
    <circle cx="317.31" cy="156.64" r="5.71" name="150" data-part="seat"></circle>
    <circle cx="331.83" cy="156.93" r="5.71" name="151" data-part="seat"></circle>
    <circle cx="346.37" cy="157.71" r="5.71" name="152" data-part="seat"></circle>
    <circle cx="261.94" cy="174.29" r="5.71" name="153" data-part="seat"></circle>
    <circle cx="276.26" cy="174.29" r="5.71" name="154" data-part="seat"></circle>
    <circle cx="290.57" cy="174.29" r="5.71" name="155" data-part="seat"></circle>
    <circle cx="304.87" cy="174.29" r="5.71" name="156" data-part="seat"></circle>
    <circle cx="319.17" cy="174.29" r="5.71" name="157" data-part="seat"></circle>
    <circle cx="333.47" cy="174.29" r="5.71" name="158" data-part="seat"></circle>
    <circle cx="347.76" cy="174.29" r="5.71" name="159" data-part="seat"></circle>
  </g>
</g>
</svg>
