<?xml version="1.0" encoding="UTF-8" standalone="no"?>
<svg id="svg" xmlns:svg="http://www.w3.org/2000/svg"
xmlns="http://www.w3.org/2000/svg" version="1.1"
width="360" height="185">
<!-- Created with the Wikimedia parliament diagram creator (http://tools.wmflabs.org/parliamentdiagram/parliamentinputform.html) -->
<g>
  <g style="fill:#EEEEEE" id="Empty">
    <circle cx="13.47" cy="173.34" r="6.67" name="0" data-part="seat"></circle>
    <circle cx="30.15" cy="173.34" r="6.67" name="1" data-part="seat"></circle>
    <circle cx="46.83" cy="173.34" r="6.67" name="2" data-part="seat"></circle>
    <circle cx="63.52" cy="173.34" r="6.67" name="3" data-part="seat"></circle>
    <circle cx="80.22" cy="173.34" r="6.67" name="4" data-part="seat"></circle>
    <circle cx="96.93" cy="173.35" r="6.67" name="5" data-part="seat"></circle>
    <circle cx="15.29" cy="154.54" r="6.67" name="6" data-part="seat"></circle>
    <circle cx="32.20" cy="154.38" r="6.67" name="7" data-part="seat"></circle>
    <circle cx="49.19" cy="154.19" r="6.67" name="8" data-part="seat"></circle>
    <circle cx="66.28" cy="153.94" r="6.67" name="9" data-part="seat"></circle>
    <circle cx="19.23" cy="136.06" r="6.67" name="10" data-part="seat"></circle>
    <circle cx="83.55" cy="153.60" r="6.67" name="11" data-part="seat"></circle>
    <circle cx="36.65" cy="135.84" r="6.67" name="12" data-part="seat"></circle>
    <circle cx="101.12" cy="153.12" r="6.67" name="13" data-part="seat"></circle>
    <circle cx="54.28" cy="135.58" r="6.67" name="14" data-part="seat"></circle>
    <circle cx="25.23" cy="118.15" r="6.67" name="15" data-part="seat"></circle>
    <circle cx="72.25" cy="135.27" r="6.67" name="16" data-part="seat"></circle>
    <circle cx="43.41" cy="118.01" r="6.67" name="17" data-part="seat"></circle>
    <circle cx="90.74" cy="134.91" r="6.67" name="18" data-part="seat"></circle>
    <circle cx="62.01" cy="117.90" r="6.67" name="19" data-part="seat"></circle>
    <circle cx="33.22" cy="101.04" r="6.67" name="20" data-part="seat"></circle>
    <circle cx="52.37" cy="101.19" r="6.67" name="21" data-part="seat"></circle>
    <circle cx="81.26" cy="117.86" r="6.67" name="22" data-part="seat"></circle>
    <circle cx="110.15" cy="134.55" r="6.67" name="23" data-part="seat"></circle>
    <circle cx="43.10" cy="84.94" r="6.67" name="24" data-part="seat"></circle>
    <circle cx="72.21" cy="101.52" r="6.67" name="25" data-part="seat"></circle>
    <circle cx="101.51" cy="118.04" r="6.67" name="26" data-part="seat"></circle>
    <circle cx="63.40" cy="85.63" r="6.67" name="27" data-part="seat"></circle>
    <circle cx="54.74" cy="70.06" r="6.67" name="28" data-part="seat"></circle>
    <circle cx="93.05" cy="102.21" r="6.67" name="29" data-part="seat"></circle>
    <circle cx="84.67" cy="86.78" r="6.67" name="30" data-part="seat"></circle>
    <circle cx="76.32" cy="71.60" r="6.67" name="31" data-part="seat"></circle>
    <circle cx="123.48" cy="118.77" r="6.67" name="32" data-part="seat"></circle>
    <circle cx="67.98" cy="56.59" r="6.67" name="33" data-part="seat"></circle>
    <circle cx="115.43" cy="103.64" r="6.67" name="34" data-part="seat"></circle>
    <circle cx="107.30" cy="88.75" r="6.67" name="35" data-part="seat"></circle>
    <circle cx="99.12" cy="74.00" r="6.67" name="36" data-part="seat"></circle>
    <circle cx="90.90" cy="59.33" r="6.67" name="37" data-part="seat"></circle>
    <circle cx="82.66" cy="44.71" r="6.67" name="38" data-part="seat"></circle>
    <circle cx="98.60" cy="34.56" r="6.67" name="39" data-part="seat"></circle>
    <circle cx="106.93" cy="49.00" r="6.67" name="40" data-part="seat"></circle>
    <circle cx="115.27" cy="63.44" r="6.67" name="41" data-part="seat"></circle>
    <circle cx="123.60" cy="77.87" r="6.67" name="42" data-part="seat"></circle>
    <circle cx="131.94" cy="92.31" r="6.67" name="43" data-part="seat"></circle>
    <circle cx="140.27" cy="106.75" r="6.67" name="44" data-part="seat"></circle>
    <circle cx="115.58" cy="26.29" r="6.67" name="45" data-part="seat"></circle>
    <circle cx="124.14" cy="40.79" r="6.67" name="46" data-part="seat"></circle>
    <circle cx="132.77" cy="55.31" r="6.67" name="47" data-part="seat"></circle>
    <circle cx="141.49" cy="69.87" r="6.67" name="48" data-part="seat"></circle>
    <circle cx="150.37" cy="84.49" r="6.67" name="49" data-part="seat"></circle>
    <circle cx="133.38" cy="19.99" r="6.67" name="50" data-part="seat"></circle>
    <circle cx="142.25" cy="34.83" r="6.67" name="51" data-part="seat"></circle>
    <circle cx="159.51" cy="99.23" r="6.67" name="52" data-part="seat"></circle>
    <circle cx="151.26" cy="49.80" r="6.67" name="53" data-part="seat"></circle>
    <circle cx="151.79" cy="15.74" r="6.67" name="54" data-part="seat"></circle>
    <circle cx="160.47" cy="64.98" r="6.67" name="55" data-part="seat"></circle>
    <circle cx="160.97" cy="31.21" r="6.67" name="56" data-part="seat"></circle>
    <circle cx="169.99" cy="80.50" r="6.67" name="57" data-part="seat"></circle>
    <circle cx="170.35" cy="47.02" r="6.67" name="58" data-part="seat"></circle>
    <circle cx="170.56" cy="13.60" r="6.67" name="59" data-part="seat"></circle>
    <circle cx="180.00" cy="30.00" r="6.67" name="60" data-part="seat"></circle>
    <circle cx="180.00" cy="63.33" r="6.67" name="61" data-part="seat"></circle>
    <circle cx="180.00" cy="96.67" r="6.67" name="62" data-part="seat"></circle>
    <circle cx="189.44" cy="13.60" r="6.67" name="63" data-part="seat"></circle>
    <circle cx="189.65" cy="47.02" r="6.67" name="64" data-part="seat"></circle>
    <circle cx="190.01" cy="80.50" r="6.67" name="65" data-part="seat"></circle>
    <circle cx="199.03" cy="31.21" r="6.67" name="66" data-part="seat"></circle>
    <circle cx="199.53" cy="64.98" r="6.67" name="67" data-part="seat"></circle>
    <circle cx="208.21" cy="15.74" r="6.67" name="68" data-part="seat"></circle>
    <circle cx="208.74" cy="49.80" r="6.67" name="69" data-part="seat"></circle>
    <circle cx="200.49" cy="99.23" r="6.67" name="70" data-part="seat"></circle>
    <circle cx="217.75" cy="34.83" r="6.67" name="71" data-part="seat"></circle>
    <circle cx="226.62" cy="19.99" r="6.67" name="72" data-part="seat"></circle>
    <circle cx="209.63" cy="84.49" r="6.67" name="73" data-part="seat"></circle>
    <circle cx="218.51" cy="69.87" r="6.67" name="74" data-part="seat"></circle>
    <circle cx="227.23" cy="55.31" r="6.67" name="75" data-part="seat"></circle>
    <circle cx="235.86" cy="40.79" r="6.67" name="76" data-part="seat"></circle>
    <circle cx="244.42" cy="26.29" r="6.67" name="77" data-part="seat"></circle>
    <circle cx="219.73" cy="106.75" r="6.67" name="78" data-part="seat"></circle>
    <circle cx="228.06" cy="92.31" r="6.67" name="79" data-part="seat"></circle>
    <circle cx="236.40" cy="77.87" r="6.67" name="80" data-part="seat"></circle>
    <circle cx="244.73" cy="63.44" r="6.67" name="81" data-part="seat"></circle>
    <circle cx="253.07" cy="49.00" r="6.67" name="82" data-part="seat"></circle>
    <circle cx="261.40" cy="34.56" r="6.67" name="83" data-part="seat"></circle>
    <circle cx="277.34" cy="44.71" r="6.67" name="84" data-part="seat"></circle>
    <circle cx="269.10" cy="59.33" r="6.67" name="85" data-part="seat"></circle>
    <circle cx="260.88" cy="74.00" r="6.67" name="86" data-part="seat"></circle>
    <circle cx="252.70" cy="88.75" r="6.67" name="87" data-part="seat"></circle>
    <circle cx="244.57" cy="103.64" r="6.67" name="88" data-part="seat"></circle>
    <circle cx="292.02" cy="56.59" r="6.67" name="89" data-part="seat"></circle>
    <circle cx="236.52" cy="118.77" r="6.67" name="90" data-part="seat"></circle>
    <circle cx="283.68" cy="71.60" r="6.67" name="91" data-part="seat"></circle>
    <circle cx="275.33" cy="86.78" r="6.67" name="92" data-part="seat"></circle>
    <circle cx="266.95" cy="102.21" r="6.67" name="93" data-part="seat"></circle>
    <circle cx="305.26" cy="70.06" r="6.67" name="94" data-part="seat"></circle>
    <circle cx="296.60" cy="85.63" r="6.67" name="95" data-part="seat"></circle>
    <circle cx="258.49" cy="118.04" r="6.67" name="96" data-part="seat"></circle>
    <circle cx="287.79" cy="101.52" r="6.67" name="97" data-part="seat"></circle>
    <circle cx="316.90" cy="84.94" r="6.67" name="98" data-part="seat"></circle>
    <circle cx="249.85" cy="134.55" r="6.67" name="99" data-part="seat"></circle>
    <circle cx="278.74" cy="117.86" r="6.67" name="100" data-part="seat"></circle>
    <circle cx="307.63" cy="101.19" r="6.67" name="101" data-part="seat"></circle>
    <circle cx="326.78" cy="101.04" r="6.67" name="102" data-part="seat"></circle>
    <circle cx="297.99" cy="117.90" r="6.67" name="103" data-part="seat"></circle>
    <circle cx="269.26" cy="134.91" r="6.67" name="104" data-part="seat"></circle>
    <circle cx="316.59" cy="118.01" r="6.67" name="105" data-part="seat"></circle>
    <circle cx="287.75" cy="135.27" r="6.67" name="106" data-part="seat"></circle>
    <circle cx="334.77" cy="118.15" r="6.67" name="107" data-part="seat"></circle>
    <circle cx="305.72" cy="135.58" r="6.67" name="108" data-part="seat"></circle>
    <circle cx="258.88" cy="153.12" r="6.67" name="109" data-part="seat"></circle>
    <circle cx="323.35" cy="135.84" r="6.67" name="110" data-part="seat"></circle>
    <circle cx="276.45" cy="153.60" r="6.67" name="111" data-part="seat"></circle>
    <circle cx="340.77" cy="136.06" r="6.67" name="112" data-part="seat"></circle>
    <circle cx="293.72" cy="153.94" r="6.67" name="113" data-part="seat"></circle>
    <circle cx="310.81" cy="154.19" r="6.67" name="114" data-part="seat"></circle>
    <circle cx="327.80" cy="154.38" r="6.67" name="115" data-part="seat"></circle>
    <circle cx="344.71" cy="154.54" r="6.67" name="116" data-part="seat"></circle>
    <circle cx="263.07" cy="173.35" r="6.67" name="117" data-part="seat"></circle>
    <circle cx="279.78" cy="173.34" r="6.67" name="118" data-part="seat"></circle>
    <circle cx="296.48" cy="173.34" r="6.67" name="119" data-part="seat"></circle>
    <circle cx="313.17" cy="173.34" r="6.67" name="120" data-part="seat"></circle>
    <circle cx="329.85" cy="173.34" r="6.67" name="121" data-part="seat"></circle>
    <circle cx="346.53" cy="173.34" r="6.67" name="122" data-part="seat"></circle>
  </g>
</g>
</svg>