<?xml version="1.0" encoding="UTF-8" standalone="no"?>
<svg id="svg" xmlns:svg="http://www.w3.org/2000/svg"
xmlns="http://www.w3.org/2000/svg" version="1.1"
width="360" height="185">
<!-- Created with the Wikimedia parliament diagram creator (http://tools.wmflabs.org/parliamentdiagram/parliamentinputform.html) -->
<g>
  <g style="fill:#EEEEEE" id="Empty">
    <circle cx="13.47" cy="173.34" r="6.67" name="0" data-part="seat"></circle>
    <circle cx="30.15" cy="173.34" r="6.67" name="1" data-part="seat"></circle>
    <circle cx="46.83" cy="173.34" r="6.67" name="2" data-part="seat"></circle>
    <circle cx="63.52" cy="173.34" r="6.67" name="3" data-part="seat"></circle>
    <circle cx="80.22" cy="173.34" r="6.67" name="4" data-part="seat"></circle>
    <circle cx="96.93" cy="173.35" r="6.67" name="5" data-part="seat"></circle>
    <circle cx="16.00" cy="150.30" r="6.67" name="6" data-part="seat"></circle>
    <circle cx="33.14" cy="149.45" r="6.67" name="7" data-part="seat"></circle>
    <circle cx="50.14" cy="149.75" r="6.67" name="8" data-part="seat"></circle>
    <circle cx="67.22" cy="150.13" r="6.67" name="9" data-part="seat"></circle>
    <circle cx="84.99" cy="148.80" r="6.67" name="10" data-part="seat"></circle>
    <circle cx="21.71" cy="127.84" r="6.67" name="11" data-part="seat"></circle>
    <circle cx="39.92" cy="126.35" r="6.67" name="12" data-part="seat"></circle>
    <circle cx="102.55" cy="149.24" r="6.67" name="13" data-part="seat"></circle>
    <circle cx="57.60" cy="127.12" r="6.67" name="14" data-part="seat"></circle>
    <circle cx="30.47" cy="106.38" r="6.67" name="15" data-part="seat"></circle>
    <circle cx="75.50" cy="128.13" r="6.67" name="16" data-part="seat"></circle>
    <circle cx="50.31" cy="104.63" r="6.67" name="17" data-part="seat"></circle>
    <circle cx="95.70" cy="126.20" r="6.67" name="18" data-part="seat"></circle>
    <circle cx="68.97" cy="106.18" r="6.67" name="19" data-part="seat"></circle>
    <circle cx="42.13" cy="86.35" r="6.67" name="20" data-part="seat"></circle>
    <circle cx="88.02" cy="108.23" r="6.67" name="21" data-part="seat"></circle>
    <circle cx="115.01" cy="127.84" r="6.67" name="22" data-part="seat"></circle>
    <circle cx="64.04" cy="84.85" r="6.67" name="23" data-part="seat"></circle>
    <circle cx="56.45" cy="68.14" r="6.67" name="24" data-part="seat"></circle>
    <circle cx="83.88" cy="87.60" r="6.67" name="25" data-part="seat"></circle>
    <circle cx="111.68" cy="106.97" r="6.67" name="26" data-part="seat"></circle>
    <circle cx="80.75" cy="67.53" r="6.67" name="27" data-part="seat"></circle>
    <circle cx="104.27" cy="91.25" r="6.67" name="28" data-part="seat"></circle>
    <circle cx="73.16" cy="52.08" r="6.67" name="29" data-part="seat"></circle>
    <circle cx="101.86" cy="71.97" r="6.67" name="30" data-part="seat"></circle>
    <circle cx="133.20" cy="111.05" r="6.67" name="31" data-part="seat"></circle>
    <circle cx="100.02" cy="53.10" r="6.67" name="32" data-part="seat"></circle>
    <circle cx="91.94" cy="38.50" r="6.67" name="33" data-part="seat"></circle>
    <circle cx="123.60" cy="77.87" r="6.67" name="34" data-part="seat"></circle>
    <circle cx="131.94" cy="92.31" r="6.67" name="35" data-part="seat"></circle>
    <circle cx="122.33" cy="59.78" r="6.67" name="36" data-part="seat"></circle>
    <circle cx="112.42" cy="27.65" r="6.67" name="37" data-part="seat"></circle>
    <circle cx="121.36" cy="41.94" r="6.67" name="38" data-part="seat"></circle>
    <circle cx="145.22" cy="68.64" r="6.67" name="39" data-part="seat"></circle>
    <circle cx="155.52" cy="100.34" r="6.67" name="40" data-part="seat"></circle>
    <circle cx="134.21" cy="19.75" r="6.67" name="41" data-part="seat"></circle>
    <circle cx="144.64" cy="51.44" r="6.67" name="42" data-part="seat"></circle>
    <circle cx="155.19" cy="83.13" r="6.67" name="43" data-part="seat"></circle>
    <circle cx="144.20" cy="34.34" r="6.67" name="44" data-part="seat"></circle>
    <circle cx="156.88" cy="14.94" r="6.67" name="45" data-part="seat"></circle>
    <circle cx="168.25" cy="63.93" r="6.67" name="46" data-part="seat"></circle>
    <circle cx="168.09" cy="47.20" r="6.67" name="47" data-part="seat"></circle>
    <circle cx="167.96" cy="30.48" r="6.67" name="48" data-part="seat"></circle>
    <circle cx="180.00" cy="13.33" r="6.67" name="49" data-part="seat"></circle>
    <circle cx="180.00" cy="80.00" r="6.67" name="50" data-part="seat"></circle>
    <circle cx="180.00" cy="96.67" r="6.67" name="51" data-part="seat"></circle>
    <circle cx="192.04" cy="30.48" r="6.67" name="52" data-part="seat"></circle>
    <circle cx="191.91" cy="47.20" r="6.67" name="53" data-part="seat"></circle>
    <circle cx="191.75" cy="63.93" r="6.67" name="54" data-part="seat"></circle>
    <circle cx="203.12" cy="14.94" r="6.67" name="55" data-part="seat"></circle>
    <circle cx="215.80" cy="34.34" r="6.67" name="56" data-part="seat"></circle>
    <circle cx="204.81" cy="83.13" r="6.67" name="57" data-part="seat"></circle>
    <circle cx="215.36" cy="51.44" r="6.67" name="58" data-part="seat"></circle>
    <circle cx="225.79" cy="19.75" r="6.67" name="59" data-part="seat"></circle>
    <circle cx="204.48" cy="100.34" r="6.67" name="60" data-part="seat"></circle>
    <circle cx="214.78" cy="68.64" r="6.67" name="61" data-part="seat"></circle>
    <circle cx="238.64" cy="41.94" r="6.67" name="62" data-part="seat"></circle>
    <circle cx="247.58" cy="27.65" r="6.67" name="63" data-part="seat"></circle>
    <circle cx="237.67" cy="59.78" r="6.67" name="64" data-part="seat"></circle>
    <circle cx="228.06" cy="92.31" r="6.67" name="65" data-part="seat"></circle>
    <circle cx="236.40" cy="77.87" r="6.67" name="66" data-part="seat"></circle>
    <circle cx="268.06" cy="38.50" r="6.67" name="67" data-part="seat"></circle>
    <circle cx="259.98" cy="53.10" r="6.67" name="68" data-part="seat"></circle>
    <circle cx="226.80" cy="111.05" r="6.67" name="69" data-part="seat"></circle>
    <circle cx="258.14" cy="71.97" r="6.67" name="70" data-part="seat"></circle>
    <circle cx="286.84" cy="52.08" r="6.67" name="71" data-part="seat"></circle>
    <circle cx="255.73" cy="91.25" r="6.67" name="72" data-part="seat"></circle>
    <circle cx="279.25" cy="67.53" r="6.67" name="73" data-part="seat"></circle>
    <circle cx="248.32" cy="106.97" r="6.67" name="74" data-part="seat"></circle>
    <circle cx="276.12" cy="87.60" r="6.67" name="75" data-part="seat"></circle>
    <circle cx="303.55" cy="68.14" r="6.67" name="76" data-part="seat"></circle>
    <circle cx="295.96" cy="84.85" r="6.67" name="77" data-part="seat"></circle>
    <circle cx="244.99" cy="127.84" r="6.67" name="78" data-part="seat"></circle>
    <circle cx="271.98" cy="108.23" r="6.67" name="79" data-part="seat"></circle>
    <circle cx="317.87" cy="86.35" r="6.67" name="80" data-part="seat"></circle>
    <circle cx="291.03" cy="106.18" r="6.67" name="81" data-part="seat"></circle>
    <circle cx="264.30" cy="126.20" r="6.67" name="82" data-part="seat"></circle>
    <circle cx="309.69" cy="104.63" r="6.67" name="83" data-part="seat"></circle>
    <circle cx="284.50" cy="128.13" r="6.67" name="84" data-part="seat"></circle>
    <circle cx="329.53" cy="106.38" r="6.67" name="85" data-part="seat"></circle>
    <circle cx="302.40" cy="127.12" r="6.67" name="86" data-part="seat"></circle>
    <circle cx="257.45" cy="149.24" r="6.67" name="87" data-part="seat"></circle>
    <circle cx="320.08" cy="126.35" r="6.67" name="88" data-part="seat"></circle>
    <circle cx="338.29" cy="127.84" r="6.67" name="89" data-part="seat"></circle>
    <circle cx="275.01" cy="148.80" r="6.67" name="90" data-part="seat"></circle>
    <circle cx="292.78" cy="150.13" r="6.67" name="91" data-part="seat"></circle>
    <circle cx="309.86" cy="149.75" r="6.67" name="92" data-part="seat"></circle>
    <circle cx="326.86" cy="149.45" r="6.67" name="93" data-part="seat"></circle>
    <circle cx="344.00" cy="150.30" r="6.67" name="94" data-part="seat"></circle>
    <circle cx="263.07" cy="173.35" r="6.67" name="95" data-part="seat"></circle>
    <circle cx="279.78" cy="173.34" r="6.67" name="96" data-part="seat"></circle>
    <circle cx="296.48" cy="173.34" r="6.67" name="97" data-part="seat"></circle>
    <circle cx="313.17" cy="173.34" r="6.67" name="98" data-part="seat"></circle>
    <circle cx="329.85" cy="173.34" r="6.67" name="99" data-part="seat"></circle>
    <circle cx="346.53" cy="173.34" r="6.67" name="100" data-part="seat"></circle>
  </g>
</g>
</svg>
