<?xml version="1.0" encoding="UTF-8" standalone="no"?>
<svg xmlns:svg="http://www.w3.org/2000/svg"
xmlns="http://www.w3.org/2000/svg" version="1.1"
width="360" height="185">
<!-- Created with the Wikimedia parliament diagram creator (http://tools.wmflabs.org/parliamentdiagram/parliamentinputform.html) -->
<g>
  <g style="fill:#EEEEEE" id="Empty">
    <circle cx="15.19" cy="172.01" r="8.00" name="0" data-part="seat"></circle>
    <circle cx="35.22" cy="172.01" r="8.00" name="1" data-part="seat"></circle>
    <circle cx="55.26" cy="172.01" r="8.00" name="2" data-part="seat"></circle>
    <circle cx="75.30" cy="172.02" r="8.00" name="3" data-part="seat"></circle>
    <circle cx="95.38" cy="172.02" r="8.00" name="4" data-part="seat"></circle>
    <circle cx="18.31" cy="147.11" r="8.00" name="5" data-part="seat"></circle>
    <circle cx="38.61" cy="147.85" r="8.00" name="6" data-part="seat"></circle>
    <circle cx="59.36" cy="147.28" r="8.00" name="7" data-part="seat"></circle>
    <circle cx="79.88" cy="148.36" r="8.00" name="8" data-part="seat"></circle>
    <circle cx="25.17" cy="122.97" r="8.00" name="9" data-part="seat"></circle>
    <circle cx="101.36" cy="147.74" r="8.00" name="10" data-part="seat"></circle>
    <circle cx="46.00" cy="124.61" r="8.00" name="11" data-part="seat"></circle>
    <circle cx="68.32" cy="123.86" r="8.00" name="12" data-part="seat"></circle>
    <circle cx="35.61" cy="100.15" r="8.00" name="13" data-part="seat"></circle>
    <circle cx="89.73" cy="126.37" r="8.00" name="14" data-part="seat"></circle>
    <circle cx="57.18" cy="102.93" r="8.00" name="15" data-part="seat"></circle>
    <circle cx="49.39" cy="79.18" r="8.00" name="16" data-part="seat"></circle>
    <circle cx="81.77" cy="102.70" r="8.00" name="17" data-part="seat"></circle>
    <circle cx="114.16" cy="126.24" r="8.00" name="18" data-part="seat"></circle>
    <circle cx="71.83" cy="83.44" r="8.00" name="19" data-part="seat"></circle>
    <circle cx="104.33" cy="107.21" r="8.00" name="20" data-part="seat"></circle>
    <circle cx="66.19" cy="60.53" r="8.00" name="21" data-part="seat"></circle>
    <circle cx="99.17" cy="84.65" r="8.00" name="22" data-part="seat"></circle>
    <circle cx="89.55" cy="66.67" r="8.00" name="23" data-part="seat"></circle>
    <circle cx="85.62" cy="44.66" r="8.00" name="24" data-part="seat"></circle>
    <circle cx="132.66" cy="109.40" r="8.00" name="25" data-part="seat"></circle>
    <circle cx="122.91" cy="91.88" r="8.00" name="26" data-part="seat"></circle>
    <circle cx="109.82" cy="53.11" r="8.00" name="27" data-part="seat"></circle>
    <circle cx="119.82" cy="70.44" r="8.00" name="28" data-part="seat"></circle>
    <circle cx="107.24" cy="31.91" r="8.00" name="29" data-part="seat"></circle>
    <circle cx="144.50" cy="81.18" r="8.00" name="30" data-part="seat"></circle>
    <circle cx="132.08" cy="43.15" r="8.00" name="31" data-part="seat"></circle>
    <circle cx="130.54" cy="22.59" r="8.00" name="32" data-part="seat"></circle>
    <circle cx="142.90" cy="60.63" r="8.00" name="33" data-part="seat"></circle>
    <circle cx="155.26" cy="98.68" r="8.00" name="34" data-part="seat"></circle>
    <circle cx="155.70" cy="37.05" r="8.00" name="35" data-part="seat"></circle>
    <circle cx="154.98" cy="16.91" r="8.00" name="36" data-part="seat"></circle>
    <circle cx="167.95" cy="75.69" r="8.00" name="37" data-part="seat"></circle>
    <circle cx="167.46" cy="55.63" r="8.00" name="38" data-part="seat"></circle>
    <circle cx="180.00" cy="15.00" r="8.00" name="39" data-part="seat"></circle>
    <circle cx="180.00" cy="35.00" r="8.00" name="40" data-part="seat"></circle>
    <circle cx="180.00" cy="95.00" r="8.00" name="41" data-part="seat"></circle>
    <circle cx="192.54" cy="55.63" r="8.00" name="42" data-part="seat"></circle>
    <circle cx="192.05" cy="75.69" r="8.00" name="43" data-part="seat"></circle>
    <circle cx="205.02" cy="16.91" r="8.00" name="44" data-part="seat"></circle>
    <circle cx="204.30" cy="37.05" r="8.00" name="45" data-part="seat"></circle>
    <circle cx="204.74" cy="98.68" r="8.00" name="46" data-part="seat"></circle>
    <circle cx="217.10" cy="60.63" r="8.00" name="47" data-part="seat"></circle>
    <circle cx="229.46" cy="22.59" r="8.00" name="48" data-part="seat"></circle>
    <circle cx="227.92" cy="43.15" r="8.00" name="49" data-part="seat"></circle>
    <circle cx="215.50" cy="81.18" r="8.00" name="50" data-part="seat"></circle>
    <circle cx="252.76" cy="31.91" r="8.00" name="51" data-part="seat"></circle>
    <circle cx="240.18" cy="70.44" r="8.00" name="52" data-part="seat"></circle>
    <circle cx="250.18" cy="53.11" r="8.00" name="53" data-part="seat"></circle>
    <circle cx="237.09" cy="91.88" r="8.00" name="54" data-part="seat"></circle>
    <circle cx="227.34" cy="109.40" r="8.00" name="55" data-part="seat"></circle>
    <circle cx="274.38" cy="44.66" r="8.00" name="56" data-part="seat"></circle>
    <circle cx="270.45" cy="66.67" r="8.00" name="57" data-part="seat"></circle>
    <circle cx="260.83" cy="84.65" r="8.00" name="58" data-part="seat"></circle>
    <circle cx="293.81" cy="60.53" r="8.00" name="59" data-part="seat"></circle>
    <circle cx="255.67" cy="107.21" r="8.00" name="60" data-part="seat"></circle>
    <circle cx="288.17" cy="83.44" r="8.00" name="61" data-part="seat"></circle>
    <circle cx="245.84" cy="126.24" r="8.00" name="62" data-part="seat"></circle>
    <circle cx="278.23" cy="102.70" r="8.00" name="63" data-part="seat"></circle>
    <circle cx="310.61" cy="79.18" r="8.00" name="64" data-part="seat"></circle>
    <circle cx="302.82" cy="102.93" r="8.00" name="65" data-part="seat"></circle>
    <circle cx="270.27" cy="126.37" r="8.00" name="66" data-part="seat"></circle>
    <circle cx="324.39" cy="100.15" r="8.00" name="67" data-part="seat"></circle>
    <circle cx="291.68" cy="123.86" r="8.00" name="68" data-part="seat"></circle>
    <circle cx="314.00" cy="124.61" r="8.00" name="69" data-part="seat"></circle>
    <circle cx="258.64" cy="147.74" r="8.00" name="70" data-part="seat"></circle>
    <circle cx="334.83" cy="122.97" r="8.00" name="71" data-part="seat"></circle>
    <circle cx="280.12" cy="148.36" r="8.00" name="72" data-part="seat"></circle>
    <circle cx="300.64" cy="147.28" r="8.00" name="73" data-part="seat"></circle>
    <circle cx="321.39" cy="147.85" r="8.00" name="74" data-part="seat"></circle>
    <circle cx="341.69" cy="147.11" r="8.00" name="75" data-part="seat"></circle>
    <circle cx="264.62" cy="172.02" r="8.00" name="76" data-part="seat"></circle>
    <circle cx="284.70" cy="172.02" r="8.00" name="77" data-part="seat"></circle>
    <circle cx="304.74" cy="172.01" r="8.00" name="78" data-part="seat"></circle>
    <circle cx="324.78" cy="172.01" r="8.00" name="79" data-part="seat"></circle>
    <circle cx="344.81" cy="172.01" r="8.00" name="80" data-part="seat"></circle>
  </g>
</g>
</svg>
