<?xml version="1.0" encoding="UTF-8" standalone="no"?>
<svg xmlns:svg="http://www.w3.org/2000/svg"
xmlns="http://www.w3.org/2000/svg" version="1.1"
width="360" height="185">
<!-- Created with the Wikimedia parliament diagram creator (http://tools.wmflabs.org/parliamentdiagram/parliamentinputform.html) -->
<g>
  <g style="fill:transparent" id="Empty">
    <circle cx="8.87" cy="176.92" r="3.08" name="0" data-part="seat"></circle>
    <circle cx="16.57" cy="176.92" r="3.08" name="1" data-part="seat"></circle>
    <circle cx="24.26" cy="176.92" r="3.08" name="2" data-part="seat"></circle>
    <circle cx="31.96" cy="176.92" r="3.08" name="3" data-part="seat"></circle>
    <circle cx="39.65" cy="176.92" r="3.08" name="4" data-part="seat"></circle>
    <circle cx="47.34" cy="176.92" r="3.08" name="5" data-part="seat"></circle>
    <circle cx="55.04" cy="176.92" r="3.08" name="6" data-part="seat"></circle>
    <circle cx="62.73" cy="176.92" r="3.08" name="7" data-part="seat"></circle>
    <circle cx="70.43" cy="176.92" r="3.08" name="8" data-part="seat"></circle>
    <circle cx="78.12" cy="176.92" r="3.08" name="9" data-part="seat"></circle>
    <circle cx="85.82" cy="176.92" r="3.08" name="10" data-part="seat"></circle>
    <circle cx="93.52" cy="176.92" r="3.08" name="11" data-part="seat"></circle>
    <circle cx="101.21" cy="176.92" r="3.08" name="12" data-part="seat"></circle>
    <circle cx="9.26" cy="168.07" r="3.08" name="13" data-part="seat"></circle>
    <circle cx="16.99" cy="167.87" r="3.08" name="14" data-part="seat"></circle>
    <circle cx="24.71" cy="167.82" r="3.08" name="15" data-part="seat"></circle>
    <circle cx="32.42" cy="167.94" r="3.08" name="16" data-part="seat"></circle>
    <circle cx="40.14" cy="167.88" r="3.08" name="17" data-part="seat"></circle>
    <circle cx="47.87" cy="167.81" r="3.08" name="18" data-part="seat"></circle>
    <circle cx="55.60" cy="167.74" r="3.08" name="19" data-part="seat"></circle>
    <circle cx="63.32" cy="167.89" r="3.08" name="20" data-part="seat"></circle>
    <circle cx="71.06" cy="167.81" r="3.08" name="21" data-part="seat"></circle>
    <circle cx="78.82" cy="167.72" r="3.08" name="22" data-part="seat"></circle>
    <circle cx="10.11" cy="159.26" r="3.08" name="23" data-part="seat"></circle>
    <circle cx="86.55" cy="167.90" r="3.08" name="24" data-part="seat"></circle>
    <circle cx="17.91" cy="158.86" r="3.08" name="25" data-part="seat"></circle>
    <circle cx="25.69" cy="158.76" r="3.08" name="26" data-part="seat"></circle>
    <circle cx="94.33" cy="167.80" r="3.08" name="27" data-part="seat"></circle>
    <circle cx="33.42" cy="158.99" r="3.08" name="28" data-part="seat"></circle>
    <circle cx="41.21" cy="158.88" r="3.08" name="29" data-part="seat"></circle>
    <circle cx="102.12" cy="167.68" r="3.08" name="30" data-part="seat"></circle>
    <circle cx="49.02" cy="158.76" r="3.08" name="31" data-part="seat"></circle>
    <circle cx="56.84" cy="158.62" r="3.08" name="32" data-part="seat"></circle>
    <circle cx="11.41" cy="150.49" r="3.08" name="33" data-part="seat"></circle>
    <circle cx="64.60" cy="158.92" r="3.08" name="34" data-part="seat"></circle>
    <circle cx="19.33" cy="149.91" r="3.08" name="35" data-part="seat"></circle>
    <circle cx="72.46" cy="158.78" r="3.08" name="36" data-part="seat"></circle>
    <circle cx="27.19" cy="149.76" r="3.08" name="37" data-part="seat"></circle>
    <circle cx="34.97" cy="150.13" r="3.08" name="38" data-part="seat"></circle>
    <circle cx="80.35" cy="158.61" r="3.08" name="39" data-part="seat"></circle>
    <circle cx="42.86" cy="149.98" r="3.08" name="40" data-part="seat"></circle>
    <circle cx="88.14" cy="158.98" r="3.08" name="41" data-part="seat"></circle>
    <circle cx="13.16" cy="141.81" r="3.08" name="42" data-part="seat"></circle>
    <circle cx="50.79" cy="149.81" r="3.08" name="43" data-part="seat"></circle>
    <circle cx="21.24" cy="141.06" r="3.08" name="44" data-part="seat"></circle>
    <circle cx="58.75" cy="149.62" r="3.08" name="45" data-part="seat"></circle>
    <circle cx="96.09" cy="158.82" r="3.08" name="46" data-part="seat"></circle>
    <circle cx="29.22" cy="140.88" r="3.08" name="47" data-part="seat"></circle>
    <circle cx="66.57" cy="150.08" r="3.08" name="48" data-part="seat"></circle>
    <circle cx="37.05" cy="141.37" r="3.08" name="49" data-part="seat"></circle>
    <circle cx="104.11" cy="158.61" r="3.08" name="50" data-part="seat"></circle>
    <circle cx="15.36" cy="133.23" r="3.08" name="51" data-part="seat"></circle>
    <circle cx="74.60" cy="149.89" r="3.08" name="52" data-part="seat"></circle>
    <circle cx="45.09" cy="141.20" r="3.08" name="53" data-part="seat"></circle>
    <circle cx="23.65" cy="132.32" r="3.08" name="54" data-part="seat"></circle>
    <circle cx="53.17" cy="141.00" r="3.08" name="55" data-part="seat"></circle>
    <circle cx="82.69" cy="149.68" r="3.08" name="56" data-part="seat"></circle>
    <circle cx="31.77" cy="132.13" r="3.08" name="57" data-part="seat"></circle>
    <circle cx="61.31" cy="140.78" r="3.08" name="58" data-part="seat"></circle>
    <circle cx="90.58" cy="150.26" r="3.08" name="59" data-part="seat"></circle>
    <circle cx="39.66" cy="132.76" r="3.08" name="60" data-part="seat"></circle>
    <circle cx="18.00" cy="124.78" r="3.08" name="61" data-part="seat"></circle>
    <circle cx="69.22" cy="141.42" r="3.08" name="62" data-part="seat"></circle>
    <circle cx="47.87" cy="132.58" r="3.08" name="63" data-part="seat"></circle>
    <circle cx="26.53" cy="123.74" r="3.08" name="64" data-part="seat"></circle>
    <circle cx="98.80" cy="150.07" r="3.08" name="65" data-part="seat"></circle>
    <circle cx="77.47" cy="141.22" r="3.08" name="66" data-part="seat"></circle>
    <circle cx="56.15" cy="132.38" r="3.08" name="67" data-part="seat"></circle>
    <circle cx="34.82" cy="123.54" r="3.08" name="68" data-part="seat"></circle>
    <circle cx="21.07" cy="116.47" r="3.08" name="69" data-part="seat"></circle>
    <circle cx="42.79" cy="124.32" r="3.08" name="70" data-part="seat"></circle>
    <circle cx="107.15" cy="149.84" r="3.08" name="71" data-part="seat"></circle>
    <circle cx="85.83" cy="141.00" r="3.08" name="72" data-part="seat"></circle>
    <circle cx="64.52" cy="132.16" r="3.08" name="73" data-part="seat"></circle>
    <circle cx="29.88" cy="115.32" r="3.08" name="74" data-part="seat"></circle>
    <circle cx="51.20" cy="124.15" r="3.08" name="75" data-part="seat"></circle>
    <circle cx="72.53" cy="132.99" r="3.08" name="76" data-part="seat"></circle>
    <circle cx="93.85" cy="141.82" r="3.08" name="77" data-part="seat"></circle>
    <circle cx="38.38" cy="115.14" r="3.08" name="78" data-part="seat"></circle>
    <circle cx="24.57" cy="108.33" r="3.08" name="79" data-part="seat"></circle>
    <circle cx="59.71" cy="123.98" r="3.08" name="80" data-part="seat"></circle>
    <circle cx="81.06" cy="132.81" r="3.08" name="81" data-part="seat"></circle>
    <circle cx="46.43" cy="116.09" r="3.08" name="82" data-part="seat"></circle>
    <circle cx="102.42" cy="141.65" r="3.08" name="83" data-part="seat"></circle>
    <circle cx="33.69" cy="107.10" r="3.08" name="84" data-part="seat"></circle>
    <circle cx="68.35" cy="123.79" r="3.08" name="85" data-part="seat"></circle>
    <circle cx="55.07" cy="115.96" r="3.08" name="86" data-part="seat"></circle>
    <circle cx="89.75" cy="132.64" r="3.08" name="87" data-part="seat"></circle>
    <circle cx="28.49" cy="100.38" r="3.08" name="88" data-part="seat"></circle>
    <circle cx="42.41" cy="106.97" r="3.08" name="89" data-part="seat"></circle>
    <circle cx="76.47" cy="124.83" r="3.08" name="90" data-part="seat"></circle>
    <circle cx="63.85" cy="115.84" r="3.08" name="91" data-part="seat"></circle>
    <circle cx="50.55" cy="108.09" r="3.08" name="92" data-part="seat"></circle>
    <circle cx="111.20" cy="141.49" r="3.08" name="93" data-part="seat"></circle>
    <circle cx="97.91" cy="133.73" r="3.08" name="94" data-part="seat"></circle>
    <circle cx="37.96" cy="99.11" r="3.08" name="95" data-part="seat"></circle>
    <circle cx="85.34" cy="124.74" r="3.08" name="96" data-part="seat"></circle>
    <circle cx="32.81" cy="92.65" r="3.08" name="97" data-part="seat"></circle>
    <circle cx="59.46" cy="108.04" r="3.08" name="98" data-part="seat"></circle>
    <circle cx="72.79" cy="115.73" r="3.08" name="99" data-part="seat"></circle>
    <circle cx="46.92" cy="99.04" r="3.08" name="100" data-part="seat"></circle>
    <circle cx="106.91" cy="133.67" r="3.08" name="101" data-part="seat"></circle>
    <circle cx="81.04" cy="117.01" r="3.08" name="102" data-part="seat"></circle>
    <circle cx="55.16" cy="100.36" r="3.08" name="103" data-part="seat"></circle>
    <circle cx="42.66" cy="91.36" r="3.08" name="104" data-part="seat"></circle>
    <circle cx="68.53" cy="108.01" r="3.08" name="105" data-part="seat"></circle>
    <circle cx="94.41" cy="124.66" r="3.08" name="106" data-part="seat"></circle>
    <circle cx="37.53" cy="85.15" r="3.08" name="107" data-part="seat"></circle>
    <circle cx="64.35" cy="100.42" r="3.08" name="108" data-part="seat"></circle>
    <circle cx="51.88" cy="91.40" r="3.08" name="109" data-part="seat"></circle>
    <circle cx="102.73" cy="126.06" r="3.08" name="110" data-part="seat"></circle>
    <circle cx="90.27" cy="117.04" r="3.08" name="111" data-part="seat"></circle>
    <circle cx="77.80" cy="108.02" r="3.08" name="112" data-part="seat"></circle>
    <circle cx="116.20" cy="133.67" r="3.08" name="113" data-part="seat"></circle>
    <circle cx="47.78" cy="83.89" r="3.08" name="114" data-part="seat"></circle>
    <circle cx="60.23" cy="92.93" r="3.08" name="115" data-part="seat"></circle>
    <circle cx="42.63" cy="77.91" r="3.08" name="116" data-part="seat"></circle>
    <circle cx="73.75" cy="100.52" r="3.08" name="117" data-part="seat"></circle>
    <circle cx="86.19" cy="109.56" r="3.08" name="118" data-part="seat"></circle>
    <circle cx="57.29" cy="84.06" r="3.08" name="119" data-part="seat"></circle>
    <circle cx="99.77" cy="117.14" r="3.08" name="120" data-part="seat"></circle>
    <circle cx="69.73" cy="93.12" r="3.08" name="121" data-part="seat"></circle>
    <circle cx="112.21" cy="126.21" r="3.08" name="122" data-part="seat"></circle>
    <circle cx="53.30" cy="76.71" r="3.08" name="123" data-part="seat"></circle>
    <circle cx="83.38" cy="100.70" r="3.08" name="124" data-part="seat"></circle>
    <circle cx="65.74" cy="85.81" r="3.08" name="125" data-part="seat"></circle>
    <circle cx="48.09" cy="70.94" r="3.08" name="126" data-part="seat"></circle>
    <circle cx="95.82" cy="109.79" r="3.08" name="127" data-part="seat"></circle>
    <circle cx="108.27" cy="118.89" r="3.08" name="128" data-part="seat"></circle>
    <circle cx="79.46" cy="93.40" r="3.08" name="129" data-part="seat"></circle>
    <circle cx="91.91" cy="102.54" r="3.08" name="130" data-part="seat"></circle>
    <circle cx="63.11" cy="77.04" r="3.08" name="131" data-part="seat"></circle>
    <circle cx="75.56" cy="86.19" r="3.08" name="132" data-part="seat"></circle>
    <circle cx="59.22" cy="69.85" r="3.08" name="133" data-part="seat"></circle>
    <circle cx="53.91" cy="64.26" r="3.08" name="134" data-part="seat"></circle>
    <circle cx="122.09" cy="126.49" r="3.08" name="135" data-part="seat"></circle>
    <circle cx="71.67" cy="79.04" r="3.08" name="136" data-part="seat"></circle>
    <circle cx="105.78" cy="110.14" r="3.08" name="137" data-part="seat"></circle>
    <circle cx="89.47" cy="93.80" r="3.08" name="138" data-part="seat"></circle>
    <circle cx="118.28" cy="119.34" r="3.08" name="139" data-part="seat"></circle>
    <circle cx="101.96" cy="103.02" r="3.08" name="140" data-part="seat"></circle>
    <circle cx="85.65" cy="86.70" r="3.08" name="141" data-part="seat"></circle>
    <circle cx="69.33" cy="70.38" r="3.08" name="142" data-part="seat"></circle>
    <circle cx="60.07" cy="57.89" r="3.08" name="143" data-part="seat"></circle>
    <circle cx="65.51" cy="63.33" r="3.08" name="144" data-part="seat"></circle>
    <circle cx="81.83" cy="79.65" r="3.08" name="145" data-part="seat"></circle>
    <circle cx="98.15" cy="95.97" r="3.08" name="146" data-part="seat"></circle>
    <circle cx="114.47" cy="112.29" r="3.08" name="147" data-part="seat"></circle>
    <circle cx="78.01" cy="72.65" r="3.08" name="148" data-part="seat"></circle>
    <circle cx="96.06" cy="87.38" r="3.08" name="149" data-part="seat"></circle>
    <circle cx="75.93" cy="64.09" r="3.08" name="150" data-part="seat"></circle>
    <circle cx="112.41" cy="103.71" r="3.08" name="151" data-part="seat"></circle>
    <circle cx="66.55" cy="51.85" r="3.08" name="152" data-part="seat"></circle>
    <circle cx="92.28" cy="80.44" r="3.08" name="153" data-part="seat"></circle>
    <circle cx="72.15" cy="57.17" r="3.08" name="154" data-part="seat"></circle>
    <circle cx="88.50" cy="73.53" r="3.08" name="155" data-part="seat"></circle>
    <circle cx="108.65" cy="96.79" r="3.08" name="156" data-part="seat"></circle>
    <circle cx="128.79" cy="120.05" r="3.08" name="157" data-part="seat"></circle>
    <circle cx="84.72" cy="66.65" r="3.08" name="158" data-part="seat"></circle>
    <circle cx="104.87" cy="89.91" r="3.08" name="159" data-part="seat"></circle>
    <circle cx="125.03" cy="113.16" r="3.08" name="160" data-part="seat"></circle>
    <circle cx="82.89" cy="58.20" r="3.08" name="161" data-part="seat"></circle>
    <circle cx="121.27" cy="106.31" r="3.08" name="162" data-part="seat"></circle>
    <circle cx="73.33" cy="46.15" r="3.08" name="163" data-part="seat"></circle>
    <circle cx="79.12" cy="51.38" r="3.08" name="164" data-part="seat"></circle>
    <circle cx="103.10" cy="81.45" r="3.08" name="165" data-part="seat"></circle>
    <circle cx="99.33" cy="74.64" r="3.08" name="166" data-part="seat"></circle>
    <circle cx="95.56" cy="67.85" r="3.08" name="167" data-part="seat"></circle>
    <circle cx="91.78" cy="61.07" r="3.08" name="168" data-part="seat"></circle>
    <circle cx="119.59" cy="97.91" r="3.08" name="169" data-part="seat"></circle>
    <circle cx="115.83" cy="91.13" r="3.08" name="170" data-part="seat"></circle>
    <circle cx="80.40" cy="40.81" r="3.08" name="171" data-part="seat"></circle>
    <circle cx="112.05" cy="84.38" r="3.08" name="172" data-part="seat"></circle>
    <circle cx="90.18" cy="52.73" r="3.08" name="173" data-part="seat"></circle>
    <circle cx="86.40" cy="45.99" r="3.08" name="174" data-part="seat"></circle>
    <circle cx="136.19" cy="114.45" r="3.08" name="175" data-part="seat"></circle>
    <circle cx="110.56" cy="76.06" r="3.08" name="176" data-part="seat"></circle>
    <circle cx="106.77" cy="69.35" r="3.08" name="177" data-part="seat"></circle>
    <circle cx="132.41" cy="107.72" r="3.08" name="178" data-part="seat"></circle>
    <circle cx="102.97" cy="62.64" r="3.08" name="179" data-part="seat"></circle>
    <circle cx="99.17" cy="55.93" r="3.08" name="180" data-part="seat"></circle>
    <circle cx="128.61" cy="101.01" r="3.08" name="181" data-part="seat"></circle>
    <circle cx="87.73" cy="35.85" r="3.08" name="182" data-part="seat"></circle>
    <circle cx="97.78" cy="47.70" r="3.08" name="183" data-part="seat"></circle>
    <circle cx="93.97" cy="41.01" r="3.08" name="184" data-part="seat"></circle>
    <circle cx="127.27" cy="92.78" r="3.08" name="185" data-part="seat"></circle>
    <circle cx="123.45" cy="86.10" r="3.08" name="186" data-part="seat"></circle>
    <circle cx="119.63" cy="79.42" r="3.08" name="187" data-part="seat"></circle>
    <circle cx="95.31" cy="31.27" r="3.08" name="188" data-part="seat"></circle>
    <circle cx="106.85" cy="51.25" r="3.08" name="189" data-part="seat"></circle>
    <circle cx="110.70" cy="57.91" r="3.08" name="190" data-part="seat"></circle>
    <circle cx="114.54" cy="64.58" r="3.08" name="191" data-part="seat"></circle>
    <circle cx="118.39" cy="71.24" r="3.08" name="192" data-part="seat"></circle>
    <circle cx="101.80" cy="36.46" r="3.08" name="193" data-part="seat"></circle>
    <circle cx="105.66" cy="43.11" r="3.08" name="194" data-part="seat"></circle>
    <circle cx="136.43" cy="96.45" r="3.08" name="195" data-part="seat"></circle>
    <circle cx="140.31" cy="103.10" r="3.08" name="196" data-part="seat"></circle>
    <circle cx="144.20" cy="109.75" r="3.08" name="197" data-part="seat"></circle>
    <circle cx="103.12" cy="27.08" r="3.08" name="198" data-part="seat"></circle>
    <circle cx="127.57" cy="75.06" r="3.08" name="199" data-part="seat"></circle>
    <circle cx="131.47" cy="81.71" r="3.08" name="200" data-part="seat"></circle>
    <circle cx="114.81" cy="47.05" r="3.08" name="201" data-part="seat"></circle>
    <circle cx="135.38" cy="88.36" r="3.08" name="202" data-part="seat"></circle>
    <circle cx="118.72" cy="53.70" r="3.08" name="203" data-part="seat"></circle>
    <circle cx="122.63" cy="60.35" r="3.08" name="204" data-part="seat"></circle>
    <circle cx="109.87" cy="32.35" r="3.08" name="205" data-part="seat"></circle>
    <circle cx="126.56" cy="67.00" r="3.08" name="206" data-part="seat"></circle>
    <circle cx="113.80" cy="39.00" r="3.08" name="207" data-part="seat"></circle>
    <circle cx="111.14" cy="23.31" r="3.08" name="208" data-part="seat"></circle>
    <circle cx="123.00" cy="43.33" r="3.08" name="209" data-part="seat"></circle>
    <circle cx="118.16" cy="28.69" r="3.08" name="210" data-part="seat"></circle>
    <circle cx="126.99" cy="50.01" r="3.08" name="211" data-part="seat"></circle>
    <circle cx="135.82" cy="71.33" r="3.08" name="212" data-part="seat"></circle>
    <circle cx="144.65" cy="92.65" r="3.08" name="213" data-part="seat"></circle>
    <circle cx="122.16" cy="35.37" r="3.08" name="214" data-part="seat"></circle>
    <circle cx="130.99" cy="56.69" r="3.08" name="215" data-part="seat"></circle>
    <circle cx="139.82" cy="78.01" r="3.08" name="216" data-part="seat"></circle>
    <circle cx="148.66" cy="99.34" r="3.08" name="217" data-part="seat"></circle>
    <circle cx="135.02" cy="63.38" r="3.08" name="218" data-part="seat"></circle>
    <circle cx="143.86" cy="84.70" r="3.08" name="219" data-part="seat"></circle>
    <circle cx="119.33" cy="19.96" r="3.08" name="220" data-part="seat"></circle>
    <circle cx="152.71" cy="106.03" r="3.08" name="221" data-part="seat"></circle>
    <circle cx="131.41" cy="40.12" r="3.08" name="222" data-part="seat"></circle>
    <circle cx="126.63" cy="25.49" r="3.08" name="223" data-part="seat"></circle>
    <circle cx="135.48" cy="46.86" r="3.08" name="224" data-part="seat"></circle>
    <circle cx="130.72" cy="32.23" r="3.08" name="225" data-part="seat"></circle>
    <circle cx="127.70" cy="17.03" r="3.08" name="226" data-part="seat"></circle>
    <circle cx="139.58" cy="53.61" r="3.08" name="227" data-part="seat"></circle>
    <circle cx="144.34" cy="68.25" r="3.08" name="228" data-part="seat"></circle>
    <circle cx="143.72" cy="60.38" r="3.08" name="229" data-part="seat"></circle>
    <circle cx="148.46" cy="75.02" r="3.08" name="230" data-part="seat"></circle>
    <circle cx="153.20" cy="89.66" r="3.08" name="231" data-part="seat"></circle>
    <circle cx="135.28" cy="22.78" r="3.08" name="232" data-part="seat"></circle>
    <circle cx="140.00" cy="37.43" r="3.08" name="233" data-part="seat"></circle>
    <circle cx="152.63" cy="81.82" r="3.08" name="234" data-part="seat"></circle>
    <circle cx="157.36" cy="96.48" r="3.08" name="235" data-part="seat"></circle>
    <circle cx="139.45" cy="29.60" r="3.08" name="236" data-part="seat"></circle>
    <circle cx="136.20" cy="14.55" r="3.08" name="237" data-part="seat"></circle>
    <circle cx="144.16" cy="44.27" r="3.08" name="238" data-part="seat"></circle>
    <circle cx="148.36" cy="51.13" r="3.08" name="239" data-part="seat"></circle>
    <circle cx="161.59" cy="103.33" r="3.08" name="240" data-part="seat"></circle>
    <circle cx="153.06" cy="65.83" r="3.08" name="241" data-part="seat"></circle>
    <circle cx="144.06" cy="20.54" r="3.08" name="242" data-part="seat"></circle>
    <circle cx="152.61" cy="58.04" r="3.08" name="243" data-part="seat"></circle>
    <circle cx="148.73" cy="35.26" r="3.08" name="244" data-part="seat"></circle>
    <circle cx="157.31" cy="72.76" r="3.08" name="245" data-part="seat"></circle>
    <circle cx="144.82" cy="12.50" r="3.08" name="246" data-part="seat"></circle>
    <circle cx="148.31" cy="27.49" r="3.08" name="247" data-part="seat"></circle>
    <circle cx="152.99" cy="42.24" r="3.08" name="248" data-part="seat"></circle>
    <circle cx="161.99" cy="87.51" r="3.08" name="249" data-part="seat"></circle>
    <circle cx="161.63" cy="79.75" r="3.08" name="250" data-part="seat"></circle>
    <circle cx="157.29" cy="49.26" r="3.08" name="251" data-part="seat"></circle>
    <circle cx="152.94" cy="18.79" r="3.08" name="252" data-part="seat"></circle>
    <circle cx="166.31" cy="94.55" r="3.08" name="253" data-part="seat"></circle>
    <circle cx="153.53" cy="10.91" r="3.08" name="254" data-part="seat"></circle>
    <circle cx="161.95" cy="64.09" r="3.08" name="255" data-part="seat"></circle>
    <circle cx="157.58" cy="33.63" r="3.08" name="256" data-part="seat"></circle>
    <circle cx="161.66" cy="56.35" r="3.08" name="257" data-part="seat"></circle>
    <circle cx="157.29" cy="25.90" r="3.08" name="258" data-part="seat"></circle>
    <circle cx="161.93" cy="40.78" r="3.08" name="259" data-part="seat"></circle>
    <circle cx="166.32" cy="71.24" r="3.08" name="260" data-part="seat"></circle>
    <circle cx="170.73" cy="101.70" r="3.08" name="261" data-part="seat"></circle>
    <circle cx="161.92" cy="17.54" r="3.08" name="262" data-part="seat"></circle>
    <circle cx="162.31" cy="9.76" r="3.08" name="263" data-part="seat"></circle>
    <circle cx="166.33" cy="48.01" r="3.08" name="264" data-part="seat"></circle>
    <circle cx="170.96" cy="86.20" r="3.08" name="265" data-part="seat"></circle>
    <circle cx="166.52" cy="32.54" r="3.08" name="266" data-part="seat"></circle>
    <circle cx="170.78" cy="78.50" r="3.08" name="267" data-part="seat"></circle>
    <circle cx="166.34" cy="24.83" r="3.08" name="268" data-part="seat"></circle>
    <circle cx="170.95" cy="63.04" r="3.08" name="269" data-part="seat"></circle>
    <circle cx="170.80" cy="55.34" r="3.08" name="270" data-part="seat"></circle>
    <circle cx="170.95" cy="39.91" r="3.08" name="271" data-part="seat"></circle>
    <circle cx="170.94" cy="16.79" r="3.08" name="272" data-part="seat"></circle>
    <circle cx="175.42" cy="93.58" r="3.08" name="273" data-part="seat"></circle>
    <circle cx="171.14" cy="9.08" r="3.08" name="274" data-part="seat"></circle>
    <circle cx="175.43" cy="70.48" r="3.08" name="275" data-part="seat"></circle>
    <circle cx="175.44" cy="47.39" r="3.08" name="276" data-part="seat"></circle>
    <circle cx="175.50" cy="31.99" r="3.08" name="277" data-part="seat"></circle>
    <circle cx="175.44" cy="24.30" r="3.08" name="278" data-part="seat"></circle>
    <circle cx="180.00" cy="8.85" r="3.08" name="279" data-part="seat"></circle>
    <circle cx="180.00" cy="16.54" r="3.08" name="280" data-part="seat"></circle>
    <circle cx="180.00" cy="39.62" r="3.08" name="281" data-part="seat"></circle>
    <circle cx="180.00" cy="55.00" r="3.08" name="282" data-part="seat"></circle>
    <circle cx="180.00" cy="62.69" r="3.08" name="283" data-part="seat"></circle>
    <circle cx="180.00" cy="78.08" r="3.08" name="284" data-part="seat"></circle>
    <circle cx="180.00" cy="85.77" r="3.08" name="285" data-part="seat"></circle>
    <circle cx="180.00" cy="101.15" r="3.08" name="286" data-part="seat"></circle>
    <circle cx="184.56" cy="24.30" r="3.08" name="287" data-part="seat"></circle>
    <circle cx="184.50" cy="31.99" r="3.08" name="288" data-part="seat"></circle>
    <circle cx="184.56" cy="47.39" r="3.08" name="289" data-part="seat"></circle>
    <circle cx="184.57" cy="70.48" r="3.08" name="290" data-part="seat"></circle>
    <circle cx="188.86" cy="9.08" r="3.08" name="291" data-part="seat"></circle>
    <circle cx="184.58" cy="93.58" r="3.08" name="292" data-part="seat"></circle>
    <circle cx="189.06" cy="16.79" r="3.08" name="293" data-part="seat"></circle>
    <circle cx="189.05" cy="39.91" r="3.08" name="294" data-part="seat"></circle>
    <circle cx="189.20" cy="55.34" r="3.08" name="295" data-part="seat"></circle>
    <circle cx="189.05" cy="63.04" r="3.08" name="296" data-part="seat"></circle>
    <circle cx="193.66" cy="24.83" r="3.08" name="297" data-part="seat"></circle>
    <circle cx="189.22" cy="78.50" r="3.08" name="298" data-part="seat"></circle>
    <circle cx="193.48" cy="32.54" r="3.08" name="299" data-part="seat"></circle>
    <circle cx="189.04" cy="86.20" r="3.08" name="300" data-part="seat"></circle>
    <circle cx="193.67" cy="48.01" r="3.08" name="301" data-part="seat"></circle>
    <circle cx="197.69" cy="9.76" r="3.08" name="302" data-part="seat"></circle>
    <circle cx="198.08" cy="17.54" r="3.08" name="303" data-part="seat"></circle>
    <circle cx="189.27" cy="101.70" r="3.08" name="304" data-part="seat"></circle>
    <circle cx="193.68" cy="71.24" r="3.08" name="305" data-part="seat"></circle>
    <circle cx="198.07" cy="40.78" r="3.08" name="306" data-part="seat"></circle>
    <circle cx="202.71" cy="25.90" r="3.08" name="307" data-part="seat"></circle>
    <circle cx="198.34" cy="56.35" r="3.08" name="308" data-part="seat"></circle>
    <circle cx="202.42" cy="33.63" r="3.08" name="309" data-part="seat"></circle>
    <circle cx="198.05" cy="64.09" r="3.08" name="310" data-part="seat"></circle>
    <circle cx="206.47" cy="10.91" r="3.08" name="311" data-part="seat"></circle>
    <circle cx="193.69" cy="94.55" r="3.08" name="312" data-part="seat"></circle>
    <circle cx="207.06" cy="18.79" r="3.08" name="313" data-part="seat"></circle>
    <circle cx="202.71" cy="49.26" r="3.08" name="314" data-part="seat"></circle>
    <circle cx="198.37" cy="79.75" r="3.08" name="315" data-part="seat"></circle>
    <circle cx="198.01" cy="87.51" r="3.08" name="316" data-part="seat"></circle>
    <circle cx="207.01" cy="42.24" r="3.08" name="317" data-part="seat"></circle>
    <circle cx="211.69" cy="27.49" r="3.08" name="318" data-part="seat"></circle>
    <circle cx="215.18" cy="12.50" r="3.08" name="319" data-part="seat"></circle>
    <circle cx="202.69" cy="72.76" r="3.08" name="320" data-part="seat"></circle>
    <circle cx="211.27" cy="35.26" r="3.08" name="321" data-part="seat"></circle>
    <circle cx="207.39" cy="58.04" r="3.08" name="322" data-part="seat"></circle>
    <circle cx="215.94" cy="20.54" r="3.08" name="323" data-part="seat"></circle>
    <circle cx="206.94" cy="65.83" r="3.08" name="324" data-part="seat"></circle>
    <circle cx="198.41" cy="103.33" r="3.08" name="325" data-part="seat"></circle>
    <circle cx="211.64" cy="51.13" r="3.08" name="326" data-part="seat"></circle>
    <circle cx="215.84" cy="44.27" r="3.08" name="327" data-part="seat"></circle>
    <circle cx="223.80" cy="14.55" r="3.08" name="328" data-part="seat"></circle>
    <circle cx="220.55" cy="29.60" r="3.08" name="329" data-part="seat"></circle>
    <circle cx="202.64" cy="96.48" r="3.08" name="330" data-part="seat"></circle>
    <circle cx="207.37" cy="81.82" r="3.08" name="331" data-part="seat"></circle>
    <circle cx="220.00" cy="37.43" r="3.08" name="332" data-part="seat"></circle>
    <circle cx="224.72" cy="22.78" r="3.08" name="333" data-part="seat"></circle>
    <circle cx="206.80" cy="89.66" r="3.08" name="334" data-part="seat"></circle>
    <circle cx="211.54" cy="75.02" r="3.08" name="335" data-part="seat"></circle>
    <circle cx="216.28" cy="60.38" r="3.08" name="336" data-part="seat"></circle>
    <circle cx="215.66" cy="68.25" r="3.08" name="337" data-part="seat"></circle>
    <circle cx="220.42" cy="53.61" r="3.08" name="338" data-part="seat"></circle>
    <circle cx="232.30" cy="17.03" r="3.08" name="339" data-part="seat"></circle>
    <circle cx="229.28" cy="32.23" r="3.08" name="340" data-part="seat"></circle>
    <circle cx="224.52" cy="46.86" r="3.08" name="341" data-part="seat"></circle>
    <circle cx="233.37" cy="25.49" r="3.08" name="342" data-part="seat"></circle>
    <circle cx="228.59" cy="40.12" r="3.08" name="343" data-part="seat"></circle>
    <circle cx="207.29" cy="106.03" r="3.08" name="344" data-part="seat"></circle>
    <circle cx="240.67" cy="19.96" r="3.08" name="345" data-part="seat"></circle>
    <circle cx="216.14" cy="84.70" r="3.08" name="346" data-part="seat"></circle>
    <circle cx="224.98" cy="63.38" r="3.08" name="347" data-part="seat"></circle>
    <circle cx="211.34" cy="99.34" r="3.08" name="348" data-part="seat"></circle>
    <circle cx="220.18" cy="78.01" r="3.08" name="349" data-part="seat"></circle>
    <circle cx="229.01" cy="56.69" r="3.08" name="350" data-part="seat"></circle>
    <circle cx="237.84" cy="35.37" r="3.08" name="351" data-part="seat"></circle>
    <circle cx="215.35" cy="92.65" r="3.08" name="352" data-part="seat"></circle>
    <circle cx="224.18" cy="71.33" r="3.08" name="353" data-part="seat"></circle>
    <circle cx="233.01" cy="50.01" r="3.08" name="354" data-part="seat"></circle>
    <circle cx="241.84" cy="28.69" r="3.08" name="355" data-part="seat"></circle>
    <circle cx="237.00" cy="43.33" r="3.08" name="356" data-part="seat"></circle>
    <circle cx="248.86" cy="23.31" r="3.08" name="357" data-part="seat"></circle>
    <circle cx="246.20" cy="39.00" r="3.08" name="358" data-part="seat"></circle>
    <circle cx="233.44" cy="67.00" r="3.08" name="359" data-part="seat"></circle>
    <circle cx="250.13" cy="32.35" r="3.08" name="360" data-part="seat"></circle>
    <circle cx="237.37" cy="60.35" r="3.08" name="361" data-part="seat"></circle>
    <circle cx="241.28" cy="53.70" r="3.08" name="362" data-part="seat"></circle>
    <circle cx="224.62" cy="88.36" r="3.08" name="363" data-part="seat"></circle>
    <circle cx="245.19" cy="47.05" r="3.08" name="364" data-part="seat"></circle>
    <circle cx="228.53" cy="81.71" r="3.08" name="365" data-part="seat"></circle>
    <circle cx="232.43" cy="75.06" r="3.08" name="366" data-part="seat"></circle>
    <circle cx="256.88" cy="27.08" r="3.08" name="367" data-part="seat"></circle>
    <circle cx="215.80" cy="109.75" r="3.08" name="368" data-part="seat"></circle>
    <circle cx="219.69" cy="103.10" r="3.08" name="369" data-part="seat"></circle>
    <circle cx="223.57" cy="96.45" r="3.08" name="370" data-part="seat"></circle>
    <circle cx="254.34" cy="43.11" r="3.08" name="371" data-part="seat"></circle>
    <circle cx="258.20" cy="36.46" r="3.08" name="372" data-part="seat"></circle>
    <circle cx="241.61" cy="71.24" r="3.08" name="373" data-part="seat"></circle>
    <circle cx="245.46" cy="64.58" r="3.08" name="374" data-part="seat"></circle>
    <circle cx="249.30" cy="57.91" r="3.08" name="375" data-part="seat"></circle>
    <circle cx="253.15" cy="51.25" r="3.08" name="376" data-part="seat"></circle>
    <circle cx="264.69" cy="31.27" r="3.08" name="377" data-part="seat"></circle>
    <circle cx="240.37" cy="79.42" r="3.08" name="378" data-part="seat"></circle>
    <circle cx="236.55" cy="86.10" r="3.08" name="379" data-part="seat"></circle>
    <circle cx="232.73" cy="92.78" r="3.08" name="380" data-part="seat"></circle>
    <circle cx="266.03" cy="41.01" r="3.08" name="381" data-part="seat"></circle>
    <circle cx="262.22" cy="47.70" r="3.08" name="382" data-part="seat"></circle>
    <circle cx="272.27" cy="35.85" r="3.08" name="383" data-part="seat"></circle>
    <circle cx="231.39" cy="101.01" r="3.08" name="384" data-part="seat"></circle>
    <circle cx="260.83" cy="55.93" r="3.08" name="385" data-part="seat"></circle>
    <circle cx="257.03" cy="62.64" r="3.08" name="386" data-part="seat"></circle>
    <circle cx="227.59" cy="107.72" r="3.08" name="387" data-part="seat"></circle>
    <circle cx="253.23" cy="69.35" r="3.08" name="388" data-part="seat"></circle>
    <circle cx="249.44" cy="76.06" r="3.08" name="389" data-part="seat"></circle>
    <circle cx="223.81" cy="114.45" r="3.08" name="390" data-part="seat"></circle>
    <circle cx="273.60" cy="45.99" r="3.08" name="391" data-part="seat"></circle>
    <circle cx="269.82" cy="52.73" r="3.08" name="392" data-part="seat"></circle>
    <circle cx="247.95" cy="84.38" r="3.08" name="393" data-part="seat"></circle>
    <circle cx="279.60" cy="40.81" r="3.08" name="394" data-part="seat"></circle>
    <circle cx="244.17" cy="91.13" r="3.08" name="395" data-part="seat"></circle>
    <circle cx="240.41" cy="97.91" r="3.08" name="396" data-part="seat"></circle>
    <circle cx="268.22" cy="61.07" r="3.08" name="397" data-part="seat"></circle>
    <circle cx="264.44" cy="67.85" r="3.08" name="398" data-part="seat"></circle>
    <circle cx="260.67" cy="74.64" r="3.08" name="399" data-part="seat"></circle>
    <circle cx="256.90" cy="81.45" r="3.08" name="400" data-part="seat"></circle>
    <circle cx="280.88" cy="51.38" r="3.08" name="401" data-part="seat"></circle>
    <circle cx="286.67" cy="46.15" r="3.08" name="402" data-part="seat"></circle>
    <circle cx="238.73" cy="106.31" r="3.08" name="403" data-part="seat"></circle>
    <circle cx="277.11" cy="58.20" r="3.08" name="404" data-part="seat"></circle>
    <circle cx="234.97" cy="113.16" r="3.08" name="405" data-part="seat"></circle>
    <circle cx="255.13" cy="89.91" r="3.08" name="406" data-part="seat"></circle>
    <circle cx="275.28" cy="66.65" r="3.08" name="407" data-part="seat"></circle>
    <circle cx="231.21" cy="120.05" r="3.08" name="408" data-part="seat"></circle>
    <circle cx="251.35" cy="96.79" r="3.08" name="409" data-part="seat"></circle>
    <circle cx="271.50" cy="73.53" r="3.08" name="410" data-part="seat"></circle>
    <circle cx="287.85" cy="57.17" r="3.08" name="411" data-part="seat"></circle>
    <circle cx="267.72" cy="80.44" r="3.08" name="412" data-part="seat"></circle>
    <circle cx="293.45" cy="51.85" r="3.08" name="413" data-part="seat"></circle>
    <circle cx="247.59" cy="103.71" r="3.08" name="414" data-part="seat"></circle>
    <circle cx="284.07" cy="64.09" r="3.08" name="415" data-part="seat"></circle>
    <circle cx="263.94" cy="87.38" r="3.08" name="416" data-part="seat"></circle>
    <circle cx="281.99" cy="72.65" r="3.08" name="417" data-part="seat"></circle>
    <circle cx="245.53" cy="112.29" r="3.08" name="418" data-part="seat"></circle>
    <circle cx="261.85" cy="95.97" r="3.08" name="419" data-part="seat"></circle>
    <circle cx="278.17" cy="79.65" r="3.08" name="420" data-part="seat"></circle>
    <circle cx="294.49" cy="63.33" r="3.08" name="421" data-part="seat"></circle>
    <circle cx="299.93" cy="57.89" r="3.08" name="422" data-part="seat"></circle>
    <circle cx="290.67" cy="70.38" r="3.08" name="423" data-part="seat"></circle>
    <circle cx="274.35" cy="86.70" r="3.08" name="424" data-part="seat"></circle>
    <circle cx="258.04" cy="103.02" r="3.08" name="425" data-part="seat"></circle>
    <circle cx="241.72" cy="119.34" r="3.08" name="426" data-part="seat"></circle>
    <circle cx="270.53" cy="93.80" r="3.08" name="427" data-part="seat"></circle>
    <circle cx="254.22" cy="110.14" r="3.08" name="428" data-part="seat"></circle>
    <circle cx="288.33" cy="79.04" r="3.08" name="429" data-part="seat"></circle>
    <circle cx="237.91" cy="126.49" r="3.08" name="430" data-part="seat"></circle>
    <circle cx="306.09" cy="64.26" r="3.08" name="431" data-part="seat"></circle>
    <circle cx="300.78" cy="69.85" r="3.08" name="432" data-part="seat"></circle>
    <circle cx="284.44" cy="86.19" r="3.08" name="433" data-part="seat"></circle>
    <circle cx="296.89" cy="77.04" r="3.08" name="434" data-part="seat"></circle>
    <circle cx="268.09" cy="102.54" r="3.08" name="435" data-part="seat"></circle>
    <circle cx="280.54" cy="93.40" r="3.08" name="436" data-part="seat"></circle>
    <circle cx="251.73" cy="118.89" r="3.08" name="437" data-part="seat"></circle>
    <circle cx="264.18" cy="109.79" r="3.08" name="438" data-part="seat"></circle>
    <circle cx="311.91" cy="70.94" r="3.08" name="439" data-part="seat"></circle>
    <circle cx="294.26" cy="85.81" r="3.08" name="440" data-part="seat"></circle>
    <circle cx="276.62" cy="100.70" r="3.08" name="441" data-part="seat"></circle>
    <circle cx="306.70" cy="76.71" r="3.08" name="442" data-part="seat"></circle>
    <circle cx="247.79" cy="126.21" r="3.08" name="443" data-part="seat"></circle>
    <circle cx="290.27" cy="93.12" r="3.08" name="444" data-part="seat"></circle>
    <circle cx="260.23" cy="117.14" r="3.08" name="445" data-part="seat"></circle>
    <circle cx="302.71" cy="84.06" r="3.08" name="446" data-part="seat"></circle>
    <circle cx="273.81" cy="109.56" r="3.08" name="447" data-part="seat"></circle>
    <circle cx="286.25" cy="100.52" r="3.08" name="448" data-part="seat"></circle>
    <circle cx="317.37" cy="77.91" r="3.08" name="449" data-part="seat"></circle>
    <circle cx="299.77" cy="92.93" r="3.08" name="450" data-part="seat"></circle>
    <circle cx="312.22" cy="83.89" r="3.08" name="451" data-part="seat"></circle>
    <circle cx="243.80" cy="133.67" r="3.08" name="452" data-part="seat"></circle>
    <circle cx="282.20" cy="108.02" r="3.08" name="453" data-part="seat"></circle>
    <circle cx="269.73" cy="117.04" r="3.08" name="454" data-part="seat"></circle>
    <circle cx="257.27" cy="126.06" r="3.08" name="455" data-part="seat"></circle>
    <circle cx="308.12" cy="91.40" r="3.08" name="456" data-part="seat"></circle>
    <circle cx="295.65" cy="100.42" r="3.08" name="457" data-part="seat"></circle>
    <circle cx="322.47" cy="85.15" r="3.08" name="458" data-part="seat"></circle>
    <circle cx="265.59" cy="124.66" r="3.08" name="459" data-part="seat"></circle>
    <circle cx="291.47" cy="108.01" r="3.08" name="460" data-part="seat"></circle>
    <circle cx="317.34" cy="91.36" r="3.08" name="461" data-part="seat"></circle>
    <circle cx="304.84" cy="100.36" r="3.08" name="462" data-part="seat"></circle>
    <circle cx="278.96" cy="117.01" r="3.08" name="463" data-part="seat"></circle>
    <circle cx="253.09" cy="133.67" r="3.08" name="464" data-part="seat"></circle>
    <circle cx="313.08" cy="99.04" r="3.08" name="465" data-part="seat"></circle>
    <circle cx="287.21" cy="115.73" r="3.08" name="466" data-part="seat"></circle>
    <circle cx="300.54" cy="108.04" r="3.08" name="467" data-part="seat"></circle>
    <circle cx="327.19" cy="92.65" r="3.08" name="468" data-part="seat"></circle>
    <circle cx="274.66" cy="124.74" r="3.08" name="469" data-part="seat"></circle>
    <circle cx="322.04" cy="99.11" r="3.08" name="470" data-part="seat"></circle>
    <circle cx="262.09" cy="133.73" r="3.08" name="471" data-part="seat"></circle>
    <circle cx="248.80" cy="141.49" r="3.08" name="472" data-part="seat"></circle>
    <circle cx="309.45" cy="108.09" r="3.08" name="473" data-part="seat"></circle>
    <circle cx="296.15" cy="115.84" r="3.08" name="474" data-part="seat"></circle>
    <circle cx="283.53" cy="124.83" r="3.08" name="475" data-part="seat"></circle>
    <circle cx="317.59" cy="106.97" r="3.08" name="476" data-part="seat"></circle>
    <circle cx="331.51" cy="100.38" r="3.08" name="477" data-part="seat"></circle>
    <circle cx="270.25" cy="132.64" r="3.08" name="478" data-part="seat"></circle>
    <circle cx="304.93" cy="115.96" r="3.08" name="479" data-part="seat"></circle>
    <circle cx="291.65" cy="123.79" r="3.08" name="480" data-part="seat"></circle>
    <circle cx="326.31" cy="107.10" r="3.08" name="481" data-part="seat"></circle>
    <circle cx="257.58" cy="141.65" r="3.08" name="482" data-part="seat"></circle>
    <circle cx="313.57" cy="116.09" r="3.08" name="483" data-part="seat"></circle>
    <circle cx="278.94" cy="132.81" r="3.08" name="484" data-part="seat"></circle>
    <circle cx="300.29" cy="123.98" r="3.08" name="485" data-part="seat"></circle>
    <circle cx="335.43" cy="108.33" r="3.08" name="486" data-part="seat"></circle>
    <circle cx="321.62" cy="115.14" r="3.08" name="487" data-part="seat"></circle>
    <circle cx="266.15" cy="141.82" r="3.08" name="488" data-part="seat"></circle>
    <circle cx="287.47" cy="132.99" r="3.08" name="489" data-part="seat"></circle>
    <circle cx="308.80" cy="124.15" r="3.08" name="490" data-part="seat"></circle>
    <circle cx="330.12" cy="115.32" r="3.08" name="491" data-part="seat"></circle>
    <circle cx="295.48" cy="132.16" r="3.08" name="492" data-part="seat"></circle>
    <circle cx="274.17" cy="141.00" r="3.08" name="493" data-part="seat"></circle>
    <circle cx="252.85" cy="149.84" r="3.08" name="494" data-part="seat"></circle>
    <circle cx="317.21" cy="124.32" r="3.08" name="495" data-part="seat"></circle>
    <circle cx="338.93" cy="116.47" r="3.08" name="496" data-part="seat"></circle>
    <circle cx="325.18" cy="123.54" r="3.08" name="497" data-part="seat"></circle>
    <circle cx="303.85" cy="132.38" r="3.08" name="498" data-part="seat"></circle>
    <circle cx="282.53" cy="141.22" r="3.08" name="499" data-part="seat"></circle>
    <circle cx="261.20" cy="150.07" r="3.08" name="500" data-part="seat"></circle>
    <circle cx="333.47" cy="123.74" r="3.08" name="501" data-part="seat"></circle>
    <circle cx="312.13" cy="132.58" r="3.08" name="502" data-part="seat"></circle>
    <circle cx="290.78" cy="141.42" r="3.08" name="503" data-part="seat"></circle>
    <circle cx="342.00" cy="124.78" r="3.08" name="504" data-part="seat"></circle>
    <circle cx="320.34" cy="132.76" r="3.08" name="505" data-part="seat"></circle>
    <circle cx="269.42" cy="150.26" r="3.08" name="506" data-part="seat"></circle>
    <circle cx="298.69" cy="140.78" r="3.08" name="507" data-part="seat"></circle>
    <circle cx="328.23" cy="132.13" r="3.08" name="508" data-part="seat"></circle>
    <circle cx="277.31" cy="149.68" r="3.08" name="509" data-part="seat"></circle>
    <circle cx="306.83" cy="141.00" r="3.08" name="510" data-part="seat"></circle>
    <circle cx="336.35" cy="132.32" r="3.08" name="511" data-part="seat"></circle>
    <circle cx="314.91" cy="141.20" r="3.08" name="512" data-part="seat"></circle>
    <circle cx="285.40" cy="149.89" r="3.08" name="513" data-part="seat"></circle>
    <circle cx="344.64" cy="133.23" r="3.08" name="514" data-part="seat"></circle>
    <circle cx="255.89" cy="158.61" r="3.08" name="515" data-part="seat"></circle>
    <circle cx="322.95" cy="141.37" r="3.08" name="516" data-part="seat"></circle>
    <circle cx="293.43" cy="150.08" r="3.08" name="517" data-part="seat"></circle>
    <circle cx="330.78" cy="140.88" r="3.08" name="518" data-part="seat"></circle>
    <circle cx="263.91" cy="158.82" r="3.08" name="519" data-part="seat"></circle>
    <circle cx="301.25" cy="149.62" r="3.08" name="520" data-part="seat"></circle>
    <circle cx="338.76" cy="141.06" r="3.08" name="521" data-part="seat"></circle>
    <circle cx="309.21" cy="149.81" r="3.08" name="522" data-part="seat"></circle>
    <circle cx="346.84" cy="141.81" r="3.08" name="523" data-part="seat"></circle>
    <circle cx="271.86" cy="158.98" r="3.08" name="524" data-part="seat"></circle>
    <circle cx="317.14" cy="149.98" r="3.08" name="525" data-part="seat"></circle>
    <circle cx="279.65" cy="158.61" r="3.08" name="526" data-part="seat"></circle>
    <circle cx="325.03" cy="150.13" r="3.08" name="527" data-part="seat"></circle>
    <circle cx="332.81" cy="149.76" r="3.08" name="528" data-part="seat"></circle>
    <circle cx="287.54" cy="158.78" r="3.08" name="529" data-part="seat"></circle>
    <circle cx="340.67" cy="149.91" r="3.08" name="530" data-part="seat"></circle>
    <circle cx="295.40" cy="158.92" r="3.08" name="531" data-part="seat"></circle>
    <circle cx="348.59" cy="150.49" r="3.08" name="532" data-part="seat"></circle>
    <circle cx="303.16" cy="158.62" r="3.08" name="533" data-part="seat"></circle>
    <circle cx="310.98" cy="158.76" r="3.08" name="534" data-part="seat"></circle>
    <circle cx="257.88" cy="167.68" r="3.08" name="535" data-part="seat"></circle>
    <circle cx="318.79" cy="158.88" r="3.08" name="536" data-part="seat"></circle>
    <circle cx="326.58" cy="158.99" r="3.08" name="537" data-part="seat"></circle>
    <circle cx="265.67" cy="167.80" r="3.08" name="538" data-part="seat"></circle>
    <circle cx="334.31" cy="158.76" r="3.08" name="539" data-part="seat"></circle>
    <circle cx="342.09" cy="158.86" r="3.08" name="540" data-part="seat"></circle>
    <circle cx="273.45" cy="167.90" r="3.08" name="541" data-part="seat"></circle>
    <circle cx="349.89" cy="159.26" r="3.08" name="542" data-part="seat"></circle>
    <circle cx="281.18" cy="167.72" r="3.08" name="543" data-part="seat"></circle>
    <circle cx="288.94" cy="167.81" r="3.08" name="544" data-part="seat"></circle>
    <circle cx="296.68" cy="167.89" r="3.08" name="545" data-part="seat"></circle>
    <circle cx="304.40" cy="167.74" r="3.08" name="546" data-part="seat"></circle>
    <circle cx="312.13" cy="167.81" r="3.08" name="547" data-part="seat"></circle>
    <circle cx="319.86" cy="167.88" r="3.08" name="548" data-part="seat"></circle>
    <circle cx="327.58" cy="167.94" r="3.08" name="549" data-part="seat"></circle>
    <circle cx="335.29" cy="167.82" r="3.08" name="550" data-part="seat"></circle>
    <circle cx="343.01" cy="167.87" r="3.08" name="551" data-part="seat"></circle>
    <circle cx="350.74" cy="168.07" r="3.08" name="552" data-part="seat"></circle>
    <circle cx="258.79" cy="176.92" r="3.08" name="553" data-part="seat"></circle>
    <circle cx="266.48" cy="176.92" r="3.08" name="554" data-part="seat"></circle>
    <circle cx="274.18" cy="176.92" r="3.08" name="555" data-part="seat"></circle>
    <circle cx="281.88" cy="176.92" r="3.08" name="556" data-part="seat"></circle>
    <circle cx="289.57" cy="176.92" r="3.08" name="557" data-part="seat"></circle>
    <circle cx="297.27" cy="176.92" r="3.08" name="558" data-part="seat"></circle>
    <circle cx="304.96" cy="176.92" r="3.08" name="559" data-part="seat"></circle>
    <circle cx="312.66" cy="176.92" r="3.08" name="560" data-part="seat"></circle>
    <circle cx="320.35" cy="176.92" r="3.08" name="561" data-part="seat"></circle>
    <circle cx="328.04" cy="176.92" r="3.08" name="562" data-part="seat"></circle>
    <circle cx="335.74" cy="176.92" r="3.08" name="563" data-part="seat"></circle>
    <circle cx="343.43" cy="176.92" r="3.08" name="564" data-part="seat"></circle>
    <circle cx="351.13" cy="176.92" r="3.08" name="565" data-part="seat"></circle>
  </g>
</g>
</svg>
