<?xml version="1.0" encoding="UTF-8" standalone="no"?>
<svg xmlns:svg="http://www.w3.org/2000/svg"
xmlns="http://www.w3.org/2000/svg" version="1.1"
width="360" height="185">
<!-- Created with the Wikimedia parliament diagram creator (http://tools.wmflabs.org/parliamentdiagram/parliamentinputform.html) -->
<g>
  <g style="fill:#EEEEEE" id="Empty">
    <circle cx="12.24" cy="174.29" r="5.71" name="0" data-part="seat"></circle>
    <circle cx="26.53" cy="174.29" r="5.71" name="1" data-part="seat"></circle>
    <circle cx="40.83" cy="174.29" r="5.71" name="2" data-part="seat"></circle>
    <circle cx="55.13" cy="174.29" r="5.71" name="3" data-part="seat"></circle>
    <circle cx="69.43" cy="174.29" r="5.71" name="4" data-part="seat"></circle>
    <circle cx="83.74" cy="174.29" r="5.71" name="5" data-part="seat"></circle>
    <circle cx="98.06" cy="174.29" r="5.71" name="6" data-part="seat"></circle>
    <circle cx="13.56" cy="158.23" r="5.71" name="7" data-part="seat"></circle>
    <circle cx="27.92" cy="158.66" r="5.71" name="8" data-part="seat"></circle>
    <circle cx="42.37" cy="158.59" r="5.71" name="9" data-part="seat"></circle>
    <circle cx="56.86" cy="158.51" r="5.71" name="10" data-part="seat"></circle>
    <circle cx="71.41" cy="158.41" r="5.71" name="11" data-part="seat"></circle>
    <circle cx="16.42" cy="142.36" r="5.71" name="12" data-part="seat"></circle>
    <circle cx="86.05" cy="158.28" r="5.71" name="13" data-part="seat"></circle>
    <circle cx="30.89" cy="143.25" r="5.71" name="14" data-part="seat"></circle>
    <circle cx="45.67" cy="143.16" r="5.71" name="15" data-part="seat"></circle>
    <circle cx="100.83" cy="158.12" r="5.71" name="16" data-part="seat"></circle>
    <circle cx="60.58" cy="143.07" r="5.71" name="17" data-part="seat"></circle>
    <circle cx="20.78" cy="126.85" r="5.71" name="18" data-part="seat"></circle>
    <circle cx="75.66" cy="142.98" r="5.71" name="19" data-part="seat"></circle>
    <circle cx="35.42" cy="128.22" r="5.71" name="20" data-part="seat"></circle>
    <circle cx="50.70" cy="128.21" r="5.71" name="21" data-part="seat"></circle>
    <circle cx="91.00" cy="142.88" r="5.71" name="22" data-part="seat"></circle>
    <circle cx="26.61" cy="111.83" r="5.71" name="23" data-part="seat"></circle>
    <circle cx="66.22" cy="128.24" r="5.71" name="24" data-part="seat"></circle>
    <circle cx="41.46" cy="113.73" r="5.71" name="25" data-part="seat"></circle>
    <circle cx="106.76" cy="142.81" r="5.71" name="26" data-part="seat"></circle>
    <circle cx="82.09" cy="128.32" r="5.71" name="27" data-part="seat"></circle>
    <circle cx="57.39" cy="113.92" r="5.71" name="28" data-part="seat"></circle>
    <circle cx="33.86" cy="97.43" r="5.71" name="29" data-part="seat"></circle>
    <circle cx="48.95" cy="99.94" r="5.71" name="30" data-part="seat"></circle>
    <circle cx="73.70" cy="114.23" r="5.71" name="31" data-part="seat"></circle>
    <circle cx="98.46" cy="128.53" r="5.71" name="32" data-part="seat"></circle>
    <circle cx="65.64" cy="100.48" r="5.71" name="33" data-part="seat"></circle>
    <circle cx="42.45" cy="83.80" r="5.71" name="34" data-part="seat"></circle>
    <circle cx="90.56" cy="114.74" r="5.71" name="35" data-part="seat"></circle>
    <circle cx="57.80" cy="86.98" r="5.71" name="36" data-part="seat"></circle>
    <circle cx="115.62" cy="128.99" r="5.71" name="37" data-part="seat"></circle>
    <circle cx="82.89" cy="101.29" r="5.71" name="38" data-part="seat"></circle>
    <circle cx="52.31" cy="71.05" r="5.71" name="39" data-part="seat"></circle>
    <circle cx="75.37" cy="88.06" r="5.71" name="40" data-part="seat"></circle>
    <circle cx="108.21" cy="115.62" r="5.71" name="41" data-part="seat"></circle>
    <circle cx="67.94" cy="75.00" r="5.71" name="42" data-part="seat"></circle>
    <circle cx="100.91" cy="102.53" r="5.71" name="43" data-part="seat"></circle>
    <circle cx="63.34" cy="59.30" r="5.71" name="44" data-part="seat"></circle>
    <circle cx="93.65" cy="89.62" r="5.71" name="45" data-part="seat"></circle>
    <circle cx="86.44" cy="76.82" r="5.71" name="46" data-part="seat"></circle>
    <circle cx="79.24" cy="64.11" r="5.71" name="47" data-part="seat"></circle>
    <circle cx="127.04" cy="117.21" r="5.71" name="48" data-part="seat"></circle>
    <circle cx="75.46" cy="48.67" r="5.71" name="49" data-part="seat"></circle>
    <circle cx="119.98" cy="104.53" r="5.71" name="50" data-part="seat"></circle>
    <circle cx="112.90" cy="91.94" r="5.71" name="51" data-part="seat"></circle>
    <circle cx="105.81" cy="79.40" r="5.71" name="52" data-part="seat"></circle>
    <circle cx="98.70" cy="66.90" r="5.71" name="53" data-part="seat"></circle>
    <circle cx="91.59" cy="54.43" r="5.71" name="54" data-part="seat"></circle>
    <circle cx="88.53" cy="39.25" r="5.71" name="55" data-part="seat"></circle>
    <circle cx="104.87" cy="46.06" r="5.71" name="56" data-part="seat"></circle>
    <circle cx="112.01" cy="58.43" r="5.71" name="57" data-part="seat"></circle>
    <circle cx="119.16" cy="70.81" r="5.71" name="58" data-part="seat"></circle>
    <circle cx="126.30" cy="83.18" r="5.71" name="59" data-part="seat"></circle>
    <circle cx="133.44" cy="95.55" r="5.71" name="60" data-part="seat"></circle>
    <circle cx="140.59" cy="107.93" r="5.71" name="61" data-part="seat"></circle>
    <circle cx="102.45" cy="31.13" r="5.71" name="62" data-part="seat"></circle>
    <circle cx="118.93" cy="39.09" r="5.71" name="63" data-part="seat"></circle>
    <circle cx="126.19" cy="51.53" r="5.71" name="64" data-part="seat"></circle>
    <circle cx="117.09" cy="24.38" r="5.71" name="65" data-part="seat"></circle>
    <circle cx="133.49" cy="63.98" r="5.71" name="66" data-part="seat"></circle>
    <circle cx="140.82" cy="76.45" r="5.71" name="67" data-part="seat"></circle>
    <circle cx="148.21" cy="88.96" r="5.71" name="68" data-part="seat"></circle>
    <circle cx="133.63" cy="33.60" r="5.71" name="69" data-part="seat"></circle>
    <circle cx="155.70" cy="101.53" r="5.71" name="70" data-part="seat"></circle>
    <circle cx="132.30" cy="19.06" r="5.71" name="71" data-part="seat"></circle>
    <circle cx="141.07" cy="46.27" r="5.71" name="72" data-part="seat"></circle>
    <circle cx="148.57" cy="59.02" r="5.71" name="73" data-part="seat"></circle>
    <circle cx="156.16" cy="71.88" r="5.71" name="74" data-part="seat"></circle>
    <circle cx="148.82" cy="29.63" r="5.71" name="75" data-part="seat"></circle>
    <circle cx="147.95" cy="15.23" r="5.71" name="76" data-part="seat"></circle>
    <circle cx="156.44" cy="42.72" r="5.71" name="77" data-part="seat"></circle>
    <circle cx="163.88" cy="84.93" r="5.71" name="78" data-part="seat"></circle>
    <circle cx="164.16" cy="56.01" r="5.71" name="79" data-part="seat"></circle>
    <circle cx="164.33" cy="27.23" r="5.71" name="80" data-part="seat"></circle>
    <circle cx="171.79" cy="98.27" r="5.71" name="81" data-part="seat"></circle>
    <circle cx="163.90" cy="12.92" r="5.71" name="82" data-part="seat"></circle>
    <circle cx="172.00" cy="69.58" r="5.71" name="83" data-part="seat"></circle>
    <circle cx="172.11" cy="40.94" r="5.71" name="84" data-part="seat"></circle>
    <circle cx="180.00" cy="55.00" r="5.71" name="85" data-part="seat"></circle>
    <circle cx="180.00" cy="12.14" r="5.71" name="86" data-part="seat"></circle>
    <circle cx="180.00" cy="26.43" r="5.71" name="87" data-part="seat"></circle>
    <circle cx="180.00" cy="83.57" r="5.71" name="88" data-part="seat"></circle>
    <circle cx="187.89" cy="40.94" r="5.71" name="89" data-part="seat"></circle>
    <circle cx="188.00" cy="69.58" r="5.71" name="90" data-part="seat"></circle>
    <circle cx="196.10" cy="12.92" r="5.71" name="91" data-part="seat"></circle>
    <circle cx="188.21" cy="98.27" r="5.71" name="92" data-part="seat"></circle>
    <circle cx="195.67" cy="27.23" r="5.71" name="93" data-part="seat"></circle>
    <circle cx="195.84" cy="56.01" r="5.71" name="94" data-part="seat"></circle>
    <circle cx="196.12" cy="84.93" r="5.71" name="95" data-part="seat"></circle>
    <circle cx="203.56" cy="42.72" r="5.71" name="96" data-part="seat"></circle>
    <circle cx="212.05" cy="15.23" r="5.71" name="97" data-part="seat"></circle>
    <circle cx="211.18" cy="29.63" r="5.71" name="98" data-part="seat"></circle>
    <circle cx="203.84" cy="71.88" r="5.71" name="99" data-part="seat"></circle>
    <circle cx="211.43" cy="59.02" r="5.71" name="100" data-part="seat"></circle>
    <circle cx="218.93" cy="46.27" r="5.71" name="101" data-part="seat"></circle>
    <circle cx="227.70" cy="19.06" r="5.71" name="102" data-part="seat"></circle>
    <circle cx="204.30" cy="101.53" r="5.71" name="103" data-part="seat"></circle>
    <circle cx="226.37" cy="33.60" r="5.71" name="104" data-part="seat"></circle>
    <circle cx="211.79" cy="88.96" r="5.71" name="105" data-part="seat"></circle>
    <circle cx="219.18" cy="76.45" r="5.71" name="106" data-part="seat"></circle>
    <circle cx="226.51" cy="63.98" r="5.71" name="107" data-part="seat"></circle>
    <circle cx="242.91" cy="24.38" r="5.71" name="108" data-part="seat"></circle>
    <circle cx="233.81" cy="51.53" r="5.71" name="109" data-part="seat"></circle>
    <circle cx="241.07" cy="39.09" r="5.71" name="110" data-part="seat"></circle>
    <circle cx="257.55" cy="31.13" r="5.71" name="111" data-part="seat"></circle>
    <circle cx="219.41" cy="107.93" r="5.71" name="112" data-part="seat"></circle>
    <circle cx="226.56" cy="95.55" r="5.71" name="113" data-part="seat"></circle>
    <circle cx="233.70" cy="83.18" r="5.71" name="114" data-part="seat"></circle>
    <circle cx="240.84" cy="70.81" r="5.71" name="115" data-part="seat"></circle>
    <circle cx="247.99" cy="58.43" r="5.71" name="116" data-part="seat"></circle>
    <circle cx="255.13" cy="46.06" r="5.71" name="117" data-part="seat"></circle>
    <circle cx="271.47" cy="39.25" r="5.71" name="118" data-part="seat"></circle>
    <circle cx="268.41" cy="54.43" r="5.71" name="119" data-part="seat"></circle>
    <circle cx="261.30" cy="66.90" r="5.71" name="120" data-part="seat"></circle>
    <circle cx="254.19" cy="79.40" r="5.71" name="121" data-part="seat"></circle>
    <circle cx="247.10" cy="91.94" r="5.71" name="122" data-part="seat"></circle>
    <circle cx="240.02" cy="104.53" r="5.71" name="123" data-part="seat"></circle>
    <circle cx="284.54" cy="48.67" r="5.71" name="124" data-part="seat"></circle>
    <circle cx="232.96" cy="117.21" r="5.71" name="125" data-part="seat"></circle>
    <circle cx="280.76" cy="64.11" r="5.71" name="126" data-part="seat"></circle>
    <circle cx="273.56" cy="76.82" r="5.71" name="127" data-part="seat"></circle>
    <circle cx="266.35" cy="89.62" r="5.71" name="128" data-part="seat"></circle>
    <circle cx="296.66" cy="59.30" r="5.71" name="129" data-part="seat"></circle>
    <circle cx="259.09" cy="102.53" r="5.71" name="130" data-part="seat"></circle>
    <circle cx="292.06" cy="75.00" r="5.71" name="131" data-part="seat"></circle>
    <circle cx="251.79" cy="115.62" r="5.71" name="132" data-part="seat"></circle>
    <circle cx="284.63" cy="88.06" r="5.71" name="133" data-part="seat"></circle>
    <circle cx="307.69" cy="71.05" r="5.71" name="134" data-part="seat"></circle>
    <circle cx="277.11" cy="101.29" r="5.71" name="135" data-part="seat"></circle>
    <circle cx="244.38" cy="128.99" r="5.71" name="136" data-part="seat"></circle>
    <circle cx="302.20" cy="86.98" r="5.71" name="137" data-part="seat"></circle>
    <circle cx="269.44" cy="114.74" r="5.71" name="138" data-part="seat"></circle>
    <circle cx="317.55" cy="83.80" r="5.71" name="139" data-part="seat"></circle>
    <circle cx="294.36" cy="100.48" r="5.71" name="140" data-part="seat"></circle>
    <circle cx="261.54" cy="128.53" r="5.71" name="141" data-part="seat"></circle>
    <circle cx="286.30" cy="114.23" r="5.71" name="142" data-part="seat"></circle>
    <circle cx="311.05" cy="99.94" r="5.71" name="143" data-part="seat"></circle>
    <circle cx="326.14" cy="97.43" r="5.71" name="144" data-part="seat"></circle>
    <circle cx="302.61" cy="113.92" r="5.71" name="145" data-part="seat"></circle>
    <circle cx="277.91" cy="128.32" r="5.71" name="146" data-part="seat"></circle>
    <circle cx="253.24" cy="142.81" r="5.71" name="147" data-part="seat"></circle>
    <circle cx="318.54" cy="113.73" r="5.71" name="148" data-part="seat"></circle>
    <circle cx="293.78" cy="128.24" r="5.71" name="149" data-part="seat"></circle>
    <circle cx="333.39" cy="111.83" r="5.71" name="150" data-part="seat"></circle>
    <circle cx="269.00" cy="142.88" r="5.71" name="151" data-part="seat"></circle>
    <circle cx="309.30" cy="128.21" r="5.71" name="152" data-part="seat"></circle>
    <circle cx="324.58" cy="128.22" r="5.71" name="153" data-part="seat"></circle>
    <circle cx="284.34" cy="142.98" r="5.71" name="154" data-part="seat"></circle>
    <circle cx="339.22" cy="126.85" r="5.71" name="155" data-part="seat"></circle>
    <circle cx="299.42" cy="143.07" r="5.71" name="156" data-part="seat"></circle>
    <circle cx="259.17" cy="158.12" r="5.71" name="157" data-part="seat"></circle>
    <circle cx="314.33" cy="143.16" r="5.71" name="158" data-part="seat"></circle>
    <circle cx="329.11" cy="143.25" r="5.71" name="159" data-part="seat"></circle>
    <circle cx="273.95" cy="158.28" r="5.71" name="160" data-part="seat"></circle>
    <circle cx="343.58" cy="142.36" r="5.71" name="161" data-part="seat"></circle>
    <circle cx="288.59" cy="158.41" r="5.71" name="162" data-part="seat"></circle>
    <circle cx="303.14" cy="158.51" r="5.71" name="163" data-part="seat"></circle>
    <circle cx="317.63" cy="158.59" r="5.71" name="164" data-part="seat"></circle>
    <circle cx="332.08" cy="158.66" r="5.71" name="165" data-part="seat"></circle>
    <circle cx="346.44" cy="158.23" r="5.71" name="166" data-part="seat"></circle>
    <circle cx="261.94" cy="174.29" r="5.71" name="167" data-part="seat"></circle>
    <circle cx="276.26" cy="174.29" r="5.71" name="168" data-part="seat"></circle>
    <circle cx="290.57" cy="174.29" r="5.71" name="169" data-part="seat"></circle>
    <circle cx="304.87" cy="174.29" r="5.71" name="170" data-part="seat"></circle>
    <circle cx="319.17" cy="174.29" r="5.71" name="171" data-part="seat"></circle>
    <circle cx="333.47" cy="174.29" r="5.71" name="172" data-part="seat"></circle>
    <circle cx="347.76" cy="174.29" r="5.71" name="173" data-part="seat"></circle>
  </g>
</g>
</svg>
